<svg xmlns="http://www.w3.org/2000/svg" width="124" height="154" fill="none" viewBox="0 0 124 154"><path fill="#282626" d="m110.389 33.042-1.69-5.302c.829-.584 1.351 1.167 1.616 1.8.464 1.11.547 2.651.944 3.493.348.734 1.948 1.576 2.146 2.318.274 1.009-.513 1.442-.571 2.034-.083.85 1.541 2.01 2.154 2.51.721-1.826.878.124 1.516.858 1.127 1.3 4.557 2.86 5.253 3.943 1.077 1.668-.008 2.935.199 4.569s1.574 4.793 1.947 6.602c.141.709.091 1.426.075 2.143-1.541-1.11.099-6.078-2.892-4.444-.795 2.676-1.864 5.377-1.864 8.212l1.35-.684c-.182 3.085-1.996 5.727-2.817 8.612-.472 1.667-.455 3.926-1.085 5.402-.563 1.317-2.685 1.867-1.699 3.76.365-.692 1.475-1.11 1.856-1.56.481-.575.464-1.317.879-1.85.273-.35 2.204-2.368 2.369-2.4.87-.193.945 1.124.771 1.791-.439 1.684-5.187 6.82-6.397 8.962-1.408 2.493-4.184 12.288-5.592 13.213-.655.426-1.127-.225-1.873.81-1.002 1.691-4.623 10.236-5.758 10.962-2.204 1.409-.498-3.81-2.503-3.21-3.977 3.743-8.352 6.894-12.768 10.062-2.427 1.743-2.477 1.534-5.112 2.718-.746.333-3.082 2.017-3.571 1.867-2.212-.65 3.016-6.31 2.535-6.836-1.052.234-2.137 1.668-2.941 1.993-.423.175-.928.25-.787-.45.199-.992 1.11-.834 1.707-1.351 2.195-1.892 5.949-5.093 6.777-7.895.133-.441-.083-.675-.497-.5-.331.142-2.138 2.451-2.494 2.96-.762 1.067-.422 2.601-2.428 1.65-1.756-.833 1.252-2.659 1.832-3.959.505-1.126.555-3.26 1.044-4.077.314-.525.82-.05.853.183.05.376-.953 1.651.166 1.526 1.019-.534.67-1.601 1.035-2.376.216-.458 2.32-1.942 1.848-2.41-3.04 1.351-5.816 3.594-8.857 4.936-.638.283-1.367.1-2.005.375-1.193.517-2.677 3.518-3.397 4.452-1.31 1.692-4.342 3.926-5.602 5.985-2.013 3.293-2.08 9.554-7.225 10.846-2.891.726.813-2.617 1.21-3.226.464-.7 2.768-4.785 2.428-5.244-3.033 1.651-.373-.366-.332-.508.116-.375.092-1.109-.513-.85-1.16.491-2.734 6.219-4.425 4.443-.878-.917-.116-2.009-.166-3.076-1.756-.475-2.046.875-3.073 1.517-2.486 1.551-5.403 1.876-7.565 3.326-2.486 1.668-7.275 7.87-8.443 10.646-.937 2.209-2.892 9.42-4.516 10.837-.638.559-1.574.117-2.055.667-.174.2-1.69 4.552-1.781 5.044-.141.742 0 3.551-.431 3.843-.133.092-1.906-.492-3.14.333-.315.209-.373.742-.572.876-.621.4-4.317-.609-4.375-2.384-.074-2.151 1.235-2.185 2.005-3.177 1.674-2.167 3.514-11.521 4.83-14.88.705-1.801 1.74-3.51 2.636-5.211-1.036-.275-1.442 1.351-2.718.859v-1.709l-2.8 2.493c-2.884-.3-4.4 1.217-6.372 3.143-1.831 1.792-1.11 2.209-1.873 4.268-1.226 3.309-4.043 2.342-6.255 3.618-.953.55-2.933 3.026-3.762 3.393-.712.317-1.483.033-2.113.267-1.102.4-4.598 3.243-4.665.775-.05-1.792 4.077-3.001 5.27-4.268.837-.884.936-2.026 1.334-2.418.456-.45 1.433-.25 1.74-.659.24-.316-.331-.875.1-1.558.853-1.351 3.82-2.151 2.593-4.285-.365-.634-2.005.733-1.873-.492 2.652-1.184 3.107-3.577 4.607-5.627 1.972-2.693 8.079-6.795 8.899-9.504 1.11-3.676 4.921-6.819 7.159-10.229.24-.358.969-1.417.571-1.817-.488.375-1.988 2.726-2.378 2.726-.132 0-.58-.509-.505-.842.066-.309 2.883-3.143 3.256-3.893 1.458-2.96 1.906-6.936 3.033-9.954s3.099-5.86 4.416-8.887c.953-2.192 4.284-9.954 4.59-11.796.033-.2.091-.559-.174-.517-3.405 2.41-3.314 6.227-4.573 9.754-.755 2.1-3.24 8.695-5.353 9.328-1.069.325-1.864-.358-2.627-.275-.521.059-.853.617-1.383.675-.125.017-2.428-.108-2.552-.141-.961-.25-1.359-1.342-1.35-2.251-1.26-.092-2.271 1.984-3.497 1.667-1.633-.425-.158-2.81.008-3.976.34-2.376.323-3.085-2.378-2.393-.207.05-3.206 2.193-2.626.775.29-.716 1.673-1 2.187-1.558.406-.442.456-1.21 1.027-1.701.456-.4 1.384-.592 1.997-1.067 1.168-.909 4.06-8.395 5.377-10.654 7.897-13.464 13.506-24.401 24.393-35.964.605-.642 3.472-3.71 3.886-3.951.928-.534 2.204-.576 3.414-1.351.862-.55 4.971-3.977 5.601-4.702.199-.233.671-.958-.157-.758-1.467.617-2.61 2.192-4.251 2.042-.754-.692 3.994-2.901 4.574-3.426 1.93-1.75.605-1.176 3.24-2.551 3.04-1.593 6.272-4.127 9.85-3.935v2.05c.714.768 4.972-3.067 5.619-3.742.803-.842 2.643-3.843 3.364-4.477.19-.167 4.06-2.326 4.366-2.443 4.45-1.725 9.412-.25 13.854-1.784.778-.266 2.436-1 3.38-1.384 1.997-.8 7.673-4.985 8.998-2.225.837 1.75-.472 2.142-.928 3.176-.969 2.217-2.477 4.96-3.712 7.21-.547.993-1.922 2.152-2.403 3.394-.629 1.617-.696 3.093-1.574 4.91-.596 1.234-3.339 4.935-3.463 5.777-.083.584.447 2.151.762 2.643.332.525.895.625 1.094.95.323.509.257 1.3.712 2.018.622.975 2.005 1.359 2.875 2.059zm1.368 8.887c-2.519-5.336-7.54-8.645-9.463-12.872-.414-.917-.48-1.892-.737-2.851-.878-.225-1.856 1-2.552.909-.215-.034-.837-.676-.837-.734 0-.233 2.933-2.126 3.571-2.901.423-.517 2.171-3.418 1.856-3.768-1.069.025-1.243 1.384-2.502 1-1.823-.567.986-2.417 1.102-2.943.124-.566-.439-1.083-.133-1.8.307-.717 2.362-2.16 3.025-2.726 1.019-.876-1.699-1.418-2.295-1.376-.953.067-2.412 1.176-3.066 1-.737-.2-.43-1.558-.564-1.675-.132-.117-1.01.075-1.433-.084-.489-.183-.804-.841-1.085-.867-.953-.091-3.928 2.31-4.847 2.56-1.053.292-3.67.091-4.516.592-.348.208-.87 1.875-1.26 2.492-.389.617-1.16.809-1.383 1.35-1.102 2.702-1.35 6.32-3.132 8.813-.754 1.058-2.958 3.2-4.25 3.276-1.815.1-2.743-.109-4.6 1.15-2.477 1.684-8.185 10.029-10.671 12.855-1.541 1.75-1.947 2.084-3.422 4.077-.505.683-2.933 4.068-3.207 4.293-.447.375-.886.2-.679-.342.166-.45 1.765-2.61 2.196-3.26.182-.266.928-.65.348-1.017-1.798.993-6.803 6.928-6.645 8.712.041.467.348.909.861.85.713-.141 2.055-3.993 2.56-4.443.208-.183.904-.067.672.5-1.152 2.626-4.781 6.294-5.427 8.904-.042.175.712.291.986.7 1.21 1.792-1.028 7.02-2.196 8.678-.73 1.026-2.635 2.184-3.016 2.776-.646 1.01-.72 3.843-1.21 5.11.879.059 1.061-1.041 2.039-.525 1.325.7-.05 2.426.861 2.585 2.155.375 4.45-7.103 5.933-8.045.58-.367 1.019.108 1.027.675L42.596 96.3c.059 1.176.465 1.776-.48 2.743 2.42.075 1.02 1.809.008 2.918-1.118 1.225-2.626 2.034-3.736 3.418-2.436 3.034-3.745 6.36-6.969 9.061-1.764 1.484-5.783 3.043-6.785 4.11-.523.559-2.876 5.377-2.56 5.794 2.999-2.142 7.257-3.359 7.813-7.519l1.184 1.709c1.285-1.067 3.87-3.668 5.278-4.26 2.71-1.134 1.674 1.517 2.171 2.234.464.667 3.132-.367 1.02 3.368-.73 1.292-1.848 1.767-2.528 2.584-1.25 1.534-2.196 3.66-3.074 5.452-.157.325-.638.959-.157 1.209 3.032-1.242 3.853-4.835 5.758-6.853 6.165-6.544 13.141-11.762 20.665-16.806.878-.592 5.957-3.493 5.957-3.851 0-.209-.928-.909-.605-1.526 2.726-1.134 5.94-2.218 8.56-3.526 2.02-1.009 4.523-2.093 4.672-4.694-.58.034-.439.892-.861 1.35-1.749 1.901-2.917 1.418-1.4-.9 3.993-6.077 8.5-12.163 12.411-18.106 1.541-2.343 4.242-5.678 5.444-7.853.439-.8.605-2.677 1.226-3.21.48-.409.978-.2 1.276-.359.224-.116.696-1.533 1.201.267.382 1.35.009 4.852-.43 6.261-.141.459-.928 1.209-.854 1.35.041.076 1.119.767 1.458.642.97-.35 1.749-2.492 2.95-2.175-.961 2.184-3.264 3.66-3.977 5.91-1.533 4.827-1.276 9.97-2.17 14.906-.29 1.584-1.219 2.7-.979 4.31.605-.275 1.848-.175 2.287-.434.182-.108.265-.675.622-.892.505-.308 1.3-.333 1.698-.7.448-.4 1.873-3.401 3.049-4.46.39-.35 1.028-.292 1.119-.392.348-.392-.555-2.15 1.069-2.517.24-.884-.928-.192-1.102-.084-.191.117-3.315 2.501-2.635.775.497-1.258 8.865-5.368 8.41-7.46-.224-1.043-.721-1.868-.373-3.31.447-1.884 2.734-3.593 2.8-3.977.083-.517-1.035-.909-.472-2.159.398-.892 2.469-2.493 2.536-2.668.513-1.409 1.425-7.36 1.665-9.178s.771-7.02.323-8.445c-.331-1.067-1.466-.667-1.002.634.132.366.778.775.72 1.35-.82 1.226-1.4-.008-1.938-.117-1.243-.233-2.586 5.736-3.497 4.736-.273-.3 2.743-6.486 2.925-7.512.166-.95-.274-1.675-.158-2.167s.87-.776.953-1.134c.058-.267-1.11-1.7-1.342-2.176.141.35-.149 1.367-.505 1.36-.58-.018-2.32-3.586-1.865-4.436.821.467 1.094 1.584 1.55 2.384.215.376.812.642.828.692zM84.58 16.285c.746-.45 1.408-1.5 1.35-2.392-.878.417-1.425 1.425-1.35 2.392m-8.6 2.293c.248-.2.389-.875.77-1.092-1.085-1.492-2.75.017-3.72 1.025.596.834 2.253.634 2.95.067m-5.676 1.476c-.323-.367-1.376.7-1.02 1.025.58.517 1.525-.442 1.02-1.025m.348 3.76c1.069-1.01 3.016-2.168 3.049-3.76-1.16.858-3.281 2.15-3.05 3.76m5.766-3.419c-1.79.042-4.076 2.493-2.129 3.785 1.757 1.159 2.544-2.517 2.13-3.785m-10.87 5.127c-.68-.175-.92.225-1.376.492-2.295 1.367-6.123 4.135-7.796 6.17-.315.383-.82.55-.68 1.191l9.852-7.861zm38.727 3.077c.033-.61-.381-1.46-1.011-1.71-.124.768.298 1.434 1.011 1.71m-38.048-1.026c-.522-.458-5.344 3.943-5.095 5.127-1.127-.292.43-1.976.348-2.042-.158.008-.357-.059-.506 0-1.052.416-6.222 6.569-7.498 7.836-.381.383-1.02.408-1.334.709-3.638 3.417-5.063 11.429-6.024 16.156-.199.975-.829 1.692-.936 2.642 2.104-1.509 2.693-4.251 3.795-6.26.638-1.16 2.146-2.768 2.601-3.877.605-1.484-1.201-.458-1.665.034-.655.7-.613 1.9-1.674 1.9 0-.608 2.42-5.877 2.71-5.468l.174 1.025c1.309-.967 2.41-1.734 3.562-2.91 1.914-1.959 3.795-3.292 5.618-5.285 1.665-1.826 4.085-4.693 4.076-7.153-.082-.658 2.354-2.009 1.865-2.426zm4.077 2.735c-.315-.284-1.898 1.067-2.213 1.358-1.168 1.06-3.695 4.819-4.581 5.294-.498.267-1.301.142-1.36.192-.14.117.556 1.509.34 1.709-.074.066-.687-.142-.928.066-.19.167-1.557 2.852-1.79 3.352l1.194-.676c3.306-3.568 6.537-7.277 9.338-11.287zm-15.627 4.101c-.398-.358-2.046 1.292-1.698 1.7.455.534 1.483-1.525 1.698-1.7m-6.115 5.127-2.22 1.684c-.332.667-4.648 5.469-4.234 5.827.356.317 1.052-.258 1.375-.5.705-.525 5.552-6.527 5.08-7.02zm-11.21 17.782c.066-.142 1.21-.817 1.01.166l-1.35 1.543c.108-.392.207-1.45.34-1.71-1.268 1.418-5.212 6.153-5.709 7.762-.323 1.05.315 1.025 1.144.459.92-.626 2.477-4.102 3.264-5.27.232-.35.68-1.066.621-.057-.82 1.6-1.673 3.392-2.568 4.935-.73 1.267-1.251 1.875-2.03 3.426-.464.909-1.89 1.367-1.003 3.11.365.65 2.238-.81 2.668-1.093 2.751-1.834 5.262-4.068 7.847-6.118l2.908-5.786c-1.55-.067-3.463 5.36-4.756 4.101-.77-.758 3.34-5.452 4.325-5.902l3.488-11.87c-.638-.134-.82.316-1.16.708-1.143 1.325-2.667 3.35-3.728 4.793-.911 1.242-1.897 3.602-2.734 4.435-.986.975-1.409 1.076-2.569 2.368zm80.519-10.596c-.331.325.398 1.467.845 1.7 1.368-.8-.256-2.283-.845-1.7m-79.5 5.802c.779-.1 1.972-1.684 2.32-2.284.174-.3.588-1.184-.108-1.125-.256.016-2.088 2.817-2.204 3.41zm78.142-2.384c-.116.467.049 1.7.505 1.7.704 0 .737-1.983-.505-1.7m-67.942 9.912c.878-.592 1.45-2.059 1.69-3.076-1.069.525-1.516 1.959-1.69 3.076m68.613-1.717-.166-1.367c-.522.366-.588.733-.505 1.367h.679zm-69.301.692c-.63-.609-1.864-.484-1.35.683l1.35-.342c-.017-.108.05-.291 0-.333zm-2.038 4.443-.166-1.025c-.356.308-.622.517-.506 1.025h.68zm-.34 7.52c1.168.25 1.59-.976 2.096-1.818.804-1.342 1.64-3.084 1.64-4.676-1.78 1.784-3.413 3.893-3.728 6.494zm-15.743-.109c.555-.775.597-2.176-.39-1.942-.215.05-2.087 3.293-2.344 3.793-.248.475-1.69 3.568-1.566 3.726 1.997-.825 1.906-2.334 2.776-3.868.514-.909 1.168-1.225 1.516-1.709zm85.383-.575-.165-1.367c-.522.367-.589.733-.506 1.367h.68zm-75.075-.684c-.249-.25-3.803 2.11-4.077 2.727 2.03.25 3.497-.81 4.077-2.727M33.615 76.8c.547.509 4.25-2.55 3.729-3.076-1.583.325-3.224 1.409-3.729 3.076M29.2 79.534c.166.126 1.052-.025 1.35-.175.183-.091 2.42-2.959 2.56-3.234.316-.6.05-.659-.356-1.034-1.234-.158-3.852 4.227-3.562 4.444zm78.141 5.811 3.19-4.135 1.558-3.726c-1.674 2.484-3.795 5.027-4.748 7.861m-75.075-3.76c.67-.183.762-.733.67-1.367-.67.183-.762.734-.67 1.367m15.27.359c-.058-.059-1.624-.417-1.682-.359-.041.05-.075.867-.265 1.268-1.848 3.918-3.538 7.127-3.472 11.72.48-.024.713-.9.912-1.3 1.193-2.376 3.148-6.227 4.01-8.62.19-.533.837-2.392.505-2.718zm-17.657-.009c-1.044-.983-2.278 2.16-1.69 3.077.44-.184 1.823-2.951 1.69-3.077m5.775 0c-.538-.608-1.574 1.668-1.35 2.051.456-.125 1.582-1.792 1.35-2.05m68.29 10.254c.68-.108 5.784-3.768 5.088-4.443-.68.442-1.558.559-2.213 1.025-.406.292-3.214 3.052-2.883 3.427zM39.73 98l.68-3.417c-.87.5-2.014 2.893-.68 3.418m64.213-2.05c-.638-.15-.812.359-1.193.684-.596.508-7.415 7.152-6.96 7.519.721.067 1.342-.208 1.873-.675.944-.825 3.314-3.543 4.234-4.635.754-.892 1.392-1.934 2.046-2.893m-3.057 9.912c.514.434 1.425-1.242 1.632-1.6.97-1.626 1.98-3.743 2.436-5.578-1.094.842-5.419 6.053-4.068 7.178m-64.885-4.101c.232.316 1.202-1.643 1.011-2.051-.886.342-1.127 1.15-1.01 2.051m55.033-.342c.373.375 2.395-1.459 1.185-1.71-.646-.132-1.383 1.043-1.185 1.71m-16.993-1.026-2.03.851c.787 1.442 1.524.317 2.03-.851m-11.55 5.819c-1.517.367-3.207 1.426-4.077 2.726zm31.592.334c-.447-.417-2.452 1.35-2.875 1.717-1.16.992-2.262 2.234-3.24 3.41 1.26-.175 2.925-1.542 3.895-2.401.331-.292 2.618-2.351 2.22-2.726m-9.511 5.127c.397.375 4.888-3.602 4.755-4.269-.099-.491-.613-.466-1.052-.375-.572.117-3.074 3.877-3.703 4.644m-53.335-3.076c-.754-.759-1.632 1.117-1.359 1.709.787.275 1.732-1.334 1.36-1.709m-1.698 5.135c-1.26-.267-2.138.75-2.718 1.701zm23.1 3.076-3.058 1.701c.854-.059 3.058-.509 3.058-1.701m-16.986.342c-.613-.109-1.11.458-1.358 1.017.613.108 1.11-.459 1.358-1.017m-7.813 5.127c-1.84.608-4.333 1.959-5.883 3.134-.348.267-2.344 1.909-1.922 2.335 2.925-1.318 5.94-2.743 7.813-5.469zm1.02 4.785c.132.117 3.23-1.559 2.709-2.051-.191.192-3.472 1.367-2.71 2.051m-1.7-.684-2.178 1.051.265.55 2.179-1.05zm2.727 13.33c1.648-2.067 2.543-4.793 3.728-7.177-2.809 1.125-3.596 4.318-3.728 7.177m2.709 1.709c1.607-.333 1.922-2.392 2.453-3.509.422-.892 1.392-1.726 1.276-2.985-.73-.917-3.39 5.886-3.737 6.494zm-18.344-3.759c1.201.033 1.416-1.484 1.358-2.393-1.2.5-1.126 1.317-1.358 2.393m14.06 4.326-.812-2.276c.042 2.36-1.06 4.427-.68 6.836l1.998-4.01c.248-.491-.431-.425-.506-.55m-1.16 8.32c.315-.308.78-3.234-.331-3.418-.174.259-.787 4.502.331 3.418m-3.049-.333c-.439-.459-1.823 1.217-1.359 1.709.44.458 1.823-1.217 1.36-1.709"/></svg>