<svg xmlns="http://www.w3.org/2000/svg" width="142" height="137" fill="none" viewBox="0 0 142 137"><path fill="#282626" d="M131.956 107.571c-.142 1.85-.83 3.18-.83 3.37 0 1.68 1.244 3.77.838 5.7 2.295-.32 1.174-3.45 1.324-4.68.097-.81 1.28-2.16 1.456-3.27.353-2.25-.115-5.69.159-8.06.106-.94.812-2.13.962-3.36 1.121-9.38.344-19.1-1.58-28.34-.414-1.97-1.676-3.13-2.709-4.64l1.597.68c.459-.71-3.379-5.57-3.794-6.8-.653 1.95 2.162 3.39 1.606 4.98-3.945-5.28-6.698-11.67-10.44-17.17-2.109-3.1-4.959-5.7-6.927-8.57-.274-.4-.83-1.21.167-.99l3.001 3.17c.265-1.36-.936-1.67-1.342-2.31-.803-1.27-.935-2.8-2.726-3.28-1.024-.28-3.204.99-3.01-.99.045-.43 2.171-2.32 2.286-4.99.079-1.89-.618-.64-1.235-1.4-1.986-2.44.732-4.6.37-6.2-.167-.73-3.503-4.8-4.315-5.1-2.895-1.06-2.577.63-3.583 2.25-.379.61-1.968-.03-2.065-.48-.282-1.37 1.571-3.65.247-3.31-1.138.3-4.06 2.17-4.827 3.14-.732.92-.697 2.32-1.262 2.76-.724.57-4.192 1.23-5.189 1.29-1.077.07-2.047-.68-3.044-.35-1.306.43-.953 2.67-3.45 1.02-.636-.42-2.33-2.44-2.375-3.2s.865-1.01.556-1.51c-.573-.94-4.456-2.43-4.015.01-5.171-1.29-10.599-2.98-15.876-1.69-1.518.37-5.436 2.92-5.515.32l1.597-.91-6.398.45c-.026-2.01 1.456-.75 2.595-.86 2.117-.2 4.182-.74 6.345-.56 1.756-1.24-1.968-1.65-2.754-1.74-3.574-.45-6.777.5-9.945.4-3.486-.11-7.501-1.58-11.075.69-1.148.73-1.245 1.74-1.986 2.28-1.209.89-3.07.63-4.589 2.05-1.738 1.62-4.615 4.66-6.203 6.57-.865 1.04-2.798 4.68-3.76 4.73-.547.03-.997-.6-1.818-.21-.353.17-3.22 3.46-2.815 3.87 1.077-.12 2.348.21 3.38-.02.82-.18 1.244-.98 1.8-1.15.715-.21 1.28.41 2.303-.06 1.933-.9 6.195-7.77 8.41-8.23 1.165-.24 1.563.74 2.127.65.75-.13 3.15-1.86 4.395-2.27 3.23-1.06 6.098-.61 9.354.23 2.162.56 5.992 1.82 7.422 3.59-5.145-.59-9.69-3.84-14.95-3.12-1.2.16-4.994 1.61-5.815 2.47-1.43 1.48-.264 3.17-.423 3.37-.089.11-1.783-.58-2.392.46l-.6-1.81c-1.827 1.15-3.486 1.87-4.606 4.07.785.08 3.909-.57 4.341-.96.088-.08-.503-.84.256-1.14 1.88-.76 1.536 1.57 2.012 1.65 1.474.24 4.633-2.35 3.795-4.53h1.2v2.73c.256.29 5.833-1.23 4.395.44-.539.63-5.648.28-5.595 3.18 1.791-.63 3.389.59 4.686.81 4.633.78 6.874-.06 11.975 2.28 1.456.67 3.15 2.29 4.527 2.12l-4.792-4.54c.22-.5 1.245-.18 1.615-.02 1.677.73 6.76 6.08 8.34 7.78.961 1.03 1.923 3.05 2.876 3.99 1.536 1.51 3.592 1.09 2.463 3.79-.874 2.08-3.61.6-4.916-.1-1.88-1.01-4.033-3.82-5.295-4.43-1.438-.69-4.792-1.78-6.6-2.48-.918-.35-5.119-1.25-5.278-1.5-.132-.21.812-3.46-.194-4.98-.759-1.14-5.242-.11-6.61.01.124.79.803.8 1.342.97.794.25 2.347.1 2.656.83-4.289-.31-7.978-1.78-12.213-.47-.75.23-1.668 1.09-2.163 1.18s-.794-.58-1.332-.59c-4.748-.03-12.055 3.26-17.279 3.53-.838.04-1.853.08-2.639-.21-1.023-.39-1.067-1.43-1.235-1.54-.415-.27-7.554 3.57-9.134 3.1-.211-1.35.318-.71.936-.95 1.827-.7 3.706-1.02 5.471-1.97 7.651-4.14 11.234-13.7 17.579-19.51.185-1.1-.75-.7-1.306-.57-2.065.51-5.224 2.23-5.498 4.88-1.05-.35 0-2.43.397-2.95 2.4-3.16 6.301-2.71 8.949-4.37 1.57-.98 3.441-3.52 5.056-4.7-.75-.86-2.33 1.72-2.797 1.13-.989-1.25 1.88-2.4 2.691-2.61 2.4-.61 7.987-1.46 10.343-1.42 2.215.03 4.942 1.2 7.174.89.53-.07.892-1.07 1.889-1.48 7.386-3.07 15.734 1.76 22.6 3.59 4.986 1.33 9.063.54 13.97 3.66.635.41 1.791 1.9 1.923 1.9h6.195c.115 0-.23-1.58.371-2.53.9-1.41 6.274-5.06 7.828-5.22 2.012-.2 3.335 1.58 6.6.72 1.095-.29 8.243-4.22 9.169-5.02 1.298-1.13 3.777-6.76 4.96-3.72s-1.253 3.52-1.915 5.36c-.406 1.13-.344 2.59-.83 4.05-1.05 3.18-3.203 4.71-3.009 8.38.168 3.2.759 4.26-.168 7.96-.229.93-2.091 5.08-1.817 5.42.07.09 1.314.05 1.994.7 1.085 1.03 1.977 5.1 3.812 6.1.653-.5-.423-2.47-.203-2.71 1.28-1.41 1.174 3.45 1.262 3.79.15.56 2.745 2.63 2.762 2.84.062.56-.52 1.18-.247 1.96.239.68 3.274 3.54 4.016 4.54.864 1.15 5.683 8.1 5.806 8.84.141.87-.565.96-.803.69-.115-.12-.891-2.32-1.438-3.13-1.306-1.94-3.292-5.02-4.704-6.68-.256-.3-4.245-4.29-3.459-2.21.459 1.22 3.477 3.29 3.203 5.68l.786-.46c-.609 1.62-.15 2.18.414 3.62l.989-1.35c1.782 2.15 3.097 4.64 4.589 7.04.291.47 1.094.62 1.385 1.14.847 1.48 1.553 5.58 2.453 7.2 1.015 1.82 1.412-.23 1.765.03 2.233 4.88.645 10.65.874 15.65.15 3.28-.062 2.37-.432 5.46-.256 2.13-.133 4.77-.433 6.99.856-.35.459-3.77 2.003-2.97 2.198 1.14-1.809 7.76-2.418 9.53-1.403 4.08-2.832 11.76-5.586 14.97-2.594 3.02-2.974-2.99-4.218-4.74-.847-1.2-2.736-1.83-2.612-3.84.018-.25.653-.24.715-.35.573-1.13-1.492-3.61-1.677-4.83-.362-2.4-.062-3.67-1.218-6.39-1.465-3.45-3.741-2.96-4.43-4.07-.282-.46.291-1.51.177-2.39-.194-1.43-1.509-4.27-1.845-6.12-.256-1.42.195-5.12-.953-5.98-.344-.26-1.27.89-1.756-.01-.609-1.12-.053-3.01-1.782-5.23-1.554-1.98-11.411-8.27-13.361-7.94-.794.14-1.174 1.1-2.392.92-.97-.15-2.532-1.84-3.238-1.83-.724 3.73-2.833 2.21-5.022 2.93-2.62.86-8.665 9.14-9.804 12.02-.67 1.72-.053 2.69-.776 4.54-.724 1.85-2.304 3.65-3.795 4.53-.097-.98.741-1.37 1.006-2.26.318-1.08.609-2.82.847-4.03.15-.76.406-1.49-.45-.51-5.912 13.67-11.004 27.9-14.887 42.5-.424 1.6-.539 4.95-1.103 6-.362.68-.874.2-.989-.27-.282-1.22.636-2.32.177-3.36-1.05 2.29-2.33 4.65-2.604 7.25-1.288-.74-5.436-2.39-5.603-3.88l2.806-16.52c-.953-1.29-2.744 6.56-3.186 7.03-1.288 1.39-.988-2.98-.83-3.59.133-.51.822-.14 1.104-.37 1.306-1.12 1.068-5.71 1.412-7.27.291-1.29 1.977-4.35 2.506-6.23.388-1.41.318-3.14.724-4.62.256-.95 1.173-1.54 1.076-2.63-1.244-.22-1.932.9-2.48 1.94-1.147 2.17-3.318 13.53-4.924 13.92-.626.15-1.262-.96-.988-1.35.035-.05.706-.08.997-.44.892-1.07 2.992-8.26 3.239-9.95.097-.66.503-1.1-.441-.95-2.348 1.52-9.046 7.14-11.526 6.26-.564-.2-.97-1.16-1.27-1.17-.821-.04-6.901 6-8.737 6.81-1.2.53-1.826-.32-2.656.09-.503.25-4.483 5.07-5.427 6.11-1.139 1.24-.653 2.47-3.16 1.36-3.865-1.7 3.857-5.08 3.177-7.22-.538 1.04-2.48 1.41-1.615-.01.283-.46 2.4-1.96 3.054-2.45 3.344-2.54 2.912-2.59 5.542-5.94.494-.63 1.659-1.22 1.844-1.57.335-.62-.38-1.56-.23-1.8.08-.14 2.048-.64 2.79-1.16 1.605-1.12 8.753-8.62 10.024-10.39.67-.93 1.21-1.83 1.589-2.95-.16-.14-4.81 1.67-3.204 0 .186-.19 3.521-1.18 4.607-2.26 3.689-3.67 9.954-14.53 11.207-19.94 1.139-4.93 1.35-10.8 1.792-15.88.697-.11.38 1.03.397 1.58.132 3.76-.318 7.37-.397 11.11 2.065-2.6 3.741-6.34 5.197-9.52 1.068-.28.953.58.698 1.48-1.095 3.84-5.022 10.84-6.778 14.98-2.92 6.87-5.233 13.61-8.957 20.22-1.059 1.88-2.47 3.48-3.362 5.47.468.41 4.695-2.13 5.462-2.64 1.73-1.14 4.995-4.62 6.248-5.19.733-.34 1.36.16 1.862-.09.662-.33 3.186-4.29 4.227-2.51.362.62.283 4.24.089 5.11-.539 2.4-4.572 6.57-5.498 10.09-.512 1.96 2.965-1.23 3.494-2.41.177-.4 0-1.3.115-1.44.194-.22 1.438.14 1.589-.02.326-.34-.76-3.2.794-2.72.168.25-.318 4.53-.494 5.1-.221.69-.9 1.09-1.13 1.9-1.341 4.73-2.462 9.76-2.374 14.76.953-1.26 1.818-3.74 2.303-5.32.706-2.28.962-4.67 1.606-6.79.486-1.57 2.083-3.99 2.374-5.46.433-2.18-.114-5.03.512-7.36 1.553-.45.194 1.7 1.192 1.81l9.84-15.37c1.138-1.77 3.079-3.67 4.164-5.25.9-1.31 2.25-5.73 2.595-3.4.459-.88 4.05-2.52 4.192-2.75.476-.78-.927-2.11-.786-2.24 1.924.78 3.724.79 5.595 1.81.08-2.08-2.806-1.72-2.797-3.62.185-.18 4.262.4 4.898.56 4.518 1.13 10.898 5.59 15.231 8.12.785.46 1.986 1.82 2.665 2.02.883.26 1.033-.57 1.491-.67 1.518-.33 2.842 6.21 3.363 7.35 1.535 3.36 5.683 5.34 6.318 10.97.388 3.47-1.209 3.37-1.165 3.58.036.18 1.306 3.24 1.412 3.39 1.165 1.69 1.606-1.97 2.983-1.79-1.112 3.58-2.127 5.25-.6 9.06 2.268 5.65 3.283-6.71 3.574-7.73.256-.88 1.412-1.62 1.271-2.26s-2.189-3.24-2.639-2.69c.185.32.856 5.6-.397 4.08-.3-.36-1.588-8.11-2.109-9.63s-1.518-2.82-2.083-4.44c-.406-1.16-1.226-6.1-1.465-6.27-.838-.6-5.206.78-6.345-2.56 1.253-.06 2.101 1.22 3.495 1.48 3.371.63 2.674-1.88 1.077-3.94-.662-.85-5.092-4.43-6.204-5.21-.794-.56-3.839-1.88-3.963-2.08-.856-1.31 1.289-1.09 2.065-.76 2.392 1.04 7.025 2.89 9.011 4.3.573.41 3.847 3.87 1.729 3.04-.75-.29-2.321-2.19-3.009-2.49s-.803.62-.591.89c.044.06.794.2 1.2.66 2.533 2.84 1.835 3.65 3.106 6.47 1.5 3.34 10.378 15.95 9.098 19.14-.15.37-.723.63-.917 1.26-1.183 3.9-.636 10.24-2.092 13.27.088-1.13.927-2.64-.397-3.17l-.803 4.98c.344-.13 1.024-1.44 1.2-1.81zM47.573 8.761v.91h5.207v-.91zm67.589.91c-.45-.58-3.574 2.75-1.791 3.17.882.21 2.029-2.22 1.791-3.17m-79.987.46-3.998.9c1.236-.19 3.31.68 3.998-.9m-7.193 4.97c.556.57 3.813-1.98 3.195-2.72-.318.2-3.989 1.9-3.195 2.72m83.977.46c-.68-1.58-2.162-1.98-3.601-1.8.565 1.5 2.33 1.65 3.601 1.8m.291 1.93c-.221-.26-1.297-.78-1.491-.57-.098.11.714 2.19.803 2.26.52.44 1.623-.62.679-1.69zm-19.882.34-4.8.22c1.235 1.59 3.132 1.09 4.8 1.13v-1.36zM83.26 20c.132.26 1.72 1.41 1.906.32.123-.73-1.033-1.49-1.403-2.03-.856-.4-.733 1.28-.503 1.71m-58.085-.36c-.335-.38-1.509.75-1.597 1.35.803.45 2.074-.82 1.597-1.35M12.39 32.33c.6-.09 3.883-2.36 3.195-3.17-.768-.08-3.821 2.43-3.195 3.17m43.585 6.35c-2.982-1.58-5.797-4.28-9.195-4.53.115.55.653 1.01 1.06 1.29.873.61 5.223 3.11 6.124 3.49.379.16 2.038.67 2.011-.24zM23.58 35.96c-3.565-.28-7.06.46-10.616.47-1.006 0-2.074-.54-2.771-.48-1.624.16-2.215 3.27-.07 3.15 3.353-.18 8.992-1.45 12.345-2.37.397-.11 1.2-.14 1.112-.77m104.379 44.87c.168-1.71-.821-3.51-1.994-4.53-.142 1.33.423 2.54 1.006 3.64.3.57-.08 1.15.988.89m10.396-1.36c-2.251.13-.248 3.65-.795 5.43.486.74.724 0 .795-.67.167-1.48-.115-3.24 0-4.77zm-9.249 1.85c-.159-.12-1.791.21-1.509 1.05.441 1.32 2.948 5.86 3.786 7.05.503.72 1.253 1.88 2.171 1.84.335-.41-4.042-9.62-4.448-9.94m-5.939 8.57c.891-.31.636-.53.521-1.24-.344-2.07-1.862-5.14-3.318-6.47-.283 3.11 2.144 4.96 2.797 7.7zm-78.39 1.36c.962 1.12 4.333-5.2 4.395-6.34-.892.52-5.207 5.4-4.395 6.34m15.593-2.26c-2.162.29-3.892 2.57-3.997 4.98l2.991-2.26zm-9.425 6.53c.76-.82 1.924-1.36 1.827-2.91-2.541 1.44-6.274 2.75-8.533 4.6-.777.64-2.171 2.9-3.063 3.33-1.403.68-3.097-.02-3.988 2.5 4.694-.98 10.263-3.74 13.766-7.51zm3.83-2c-.423-.52-2.859 2.24-2.391 2.71 1.306.19 2.559-1.21 2.391-2.71m-12.001 2.72c.759.15 1.332-.53 1.191-1.36zm-5.595 2.26c.909.33 3.689-2.55 3.194-3.17zm12.796 1.37c-2.462.68-5.71 2.43-7.73 4.16-1.748 1.5-1.51 2.26.582 1.11 1.403-.77 4.87-3 6.071-3.99.406-.33.97-.67 1.077-1.27zm11.198 0c-1.067-.1-1.756 1.46-2.082 2.39-3.592 9.98-1.51 14.49-1.907 24.12-.026.55-.502 1.9-.397 2.04.821 1.12 1.518-3.01 1.554-3.45.308-3.32.123-6.85.494-10.32.538-4.95 1.765-9.84 2.347-14.79zm-25.194 3.17c.097-.15-.053-.98 0-1.36-2.93 1.14-.574 2.27 0 1.36m2.003 1.82c-1.492-.4-7.792 4.44-6.795 5.89zm24.383 13.59.397-3.17c-.724.16-2.136 3.56-.397 3.17m-1.192 4.08c.106-.11.406-2.66.397-3.17l-1.19 2.95c-.054.39.758.25.793.22m-7.598 10.88c2.489-2.1 1.968-6.36 1.995-9.52-.645.39-.856 2.34-1.015 3.15-.397 2.09-.592 4.27-.98 6.36z"/></svg>