<svg xmlns="http://www.w3.org/2000/svg" width="164" height="157" fill="none" viewBox="0 0 164 157"><path fill="#282626" d="M134.646 12.384c-.21.5-1.23 4.68-1.24 5.17-.03 1.65.8 2.32.92 3.65s-.3 4.82-.52 6.24c-.27 1.73-1.74 4.14-1.11 5.66s7.1 5.61 8 7.98c1.36.07.57-.77.87-1.51.55-1.33 1.1-1.54 2.17-.45 2.46 4.01 4.25 8.89 6.94 12.69 2.27 3.22 5.61 6.04 7.98 9.41 3.02 4.3 5.31 9.34 8.2 13.75.86.84-1.04 2.03-1.45 1.85-.32-.15-3.51-5.08-3.99-5.87-.66-1.09-.99-3.94-2.51-3.45 2.28 5.21 3.83 10.77 6.1 15.98 3.75 8.6 10.04 14.17 9.13 24.43-.11 1.2-1.16 3.66-1.04 4.68.1.87 1.62 1.84 1.44 3.1l-2.84-.35c-.3 2.32 2.87 4.76 3.12 6.55.09.62-.47 1.16-.45 1.58.03 1 .83 3.33-.06 3.82-2.07 1.13-2.17-3.36-2.66-4.66-.79-2.08-2.3-4.8-3.73-6.54-.09 3.44 2.52 5.61 2.09 9.29-1.3.45-2.33.27-3.58-.12-.68-.21-5.29-3.63-3.95-1.01 1.06 2.08 1.79 1.27 3.13 1.55.87.19 1.09 2-1.08 1.15-1.29-.51-6.62-7.91-7.19-9.44-.15-.4-.81-2.43-.04-2.54.5 1.66 2.14 3.26 3.39 4.46.21.2.84 1.52 1.32.6.36-.68-3.22-4.72-3.87-5.46-.06-1.83.83 1.15 2.13.26 1.15-.78-.49-4.28-.98-5.45-2.97-7.1-5.79-8.11-10.54-13.07-1.9-1.98-4.38-4.43-6.03-6.28-.33-.36-.18-1.15-.5-1.52-.67-.78-7.56-1.74-8.85-3.2 1.26-1.14 5.7 1.82 6.62.76-1.08-3.07-3.34-1.83-4.12-2.16-.67-.29-.82-1.2-1.23-1.51-2.92-2.2-6.32-3.7-9.49-4.97-.34-.14-3.89-2.53-3.17-.47.4 1.14 3.64 4.93 2.59 5.96-.28.28-1.07.6-1.29.48-1.03-.56-1.65-5.38-2.66-5.85l-15.84-1.09c.3-.59.18-1.74-.58-1.73-1.25.02-13.11 18.06-14.4 20.43-1.14 2.08-2.62 7.34-3.79 8.66-.49.55-1.43.06-1.74.76-.37.84 1.45 2.18-.43 3.51-.36.26-1.03-.04-1.53.54-1.95 2.27-9.65 23.8-11.3 28.33-.42 1.15-.33 3.18-.94 3.99-.57.75-2.14-.51-2.05-1.34.21-1.9 3.57-5.93 4.46-8.22.75-1.93.76-4 1.26-5.71.28-.96 1.27-1.55 1.38-2.93.2-2.54-1.67.38-2.02.96-1.7 2.81-6.07 14.34-5.8 17.32.22 2.37 2.84 6.64.28 7.15-2.83.56-.87-2.72-2.23-4.22-1.23 1.96-.51 4.27-1.34 6.43s-3.27 3.69-3.47 6.55c-.06-1.6-.99-2.9-.91-4.45s2.2-5.78 2.73-7.82c1.81-6.91 4.42-19.57 5.21-26.58.19-1.67.63-4.04-.17-5.5-1.13 1.87-1.11 4.49-1.97 6.39-.34.76-.74.8-.71-.09.03-.82.63-1.47.72-2.22.22-1.83.02-3.77.28-5.59.22-1.49 2.74-6.68-.61-4.26-3.84 2.77-8.34 9.9-12.54 13.2-1.13.89-3.27 2.17-4.61 2.71-.44.18-1.34.88-1.4.03 4.42-2.31 7.39-6.09 10.56-9.71 1.15-1.32 3.03-1.75 3.34-3.93.03-.32-.43-.23-.7-.08-2.65 1.47-18.69 13.65-20.39 15.68-.99 1.18-.48 2.26-1.23 3.42-.26-2.91-4.13.82-4.92 2.11-.53.87-.55 2.22-.85 2.54-.84.92-3.5-.72-2.05 2.45-3.1 3.72-6.26 7.46-9.76 10.84-.92.89-2.2 2.73-3.49 2.68l5.51-5.95c.45-.83-.51-.42-.86-.19-1.31.88-9.04 9.58-9.59 9.2.56-3-.65-1.14-1.86-2.12-.54-.44-1.01-1.71-.79-2.35 2.61-3.35 5.5-7.2 9.58-8.82.45-.18 1.45-.78 1.5.04-4.2 1.91-8.82 5.41-9.51 10.22 1.19-.07 2.12-.59 3.1-1.2 1.8-1.11 7.07-5.87 8.33-7.54.5-.66.59-1.65 1.14-2.32l-1.54-.84c2.59-1.11 3.89-5.74 4.52-8.35 2.46-10.22 7.79-14.02 14.18-21.74 9.34-11.28 22.89-26.65 29.04-39.57 1.26-2.65 1.96-5.59 3.25-8.24-2.75.8-5.47 1.22-7.24-1.55 2.71.36 5.52-.06 7.41-2.18l-1.63-1.29c1.23.3 4.97.74 2.71-1.03-1.08-.85-5.13-1.93-6.88-2.85-1.04-.55-1.97-1.66-3.26-2.04-.64.98 1.94 3.17 1.82 3.33l-1.23.71c-2.47-2.71-3.06-7.35-7.16-8.05-.48-.81.51-.7.62-.9.54-1.01-2.33-2.21-2.71-2.95-.33-.63-.04-1.49-.37-2.27-1.31-3.1-3.13-1.42-3.69-1.74-.12-.07-.14-.72-.43-1.02-.46-.47-2.44-1.76-2.51-1.9-.25-.47-.06-1.31-.44-1.78-.28-.34-2.26-.4-2.8-.71-.7-.41-1.22-1.87-2.4-2.75-1.28-.95-9.4-5.44-10.76-5.81-5.42-1.49-7.82-3.66-12.83-5.6-6.14-2.38-9.97-2.83-16.4-2.56-1.11.05-2.49-1.2-3.84.56-.46.6-.07 1.52-.15 1.63-.15.22-3.06.59-2.36-1.38.4-1.12 2.49-1.23 2.02-2.69-1.73 1.25-5.33 1.03-6.73 1.86-.73.43-.37 1.37-.63 1.89-1.02 2.08-3.22-.55-1.2-2.73.75-.81 7.42-3.04 8.8-3.29 2.66-.47 7.27.45 9.64-.38.57-.2.87-1.14 1.57-1.32 1.74-.44 5.16.95 7.46.22 1.51-.48 1.87-2.14 3.66-2.58 3.57-.88 6.44.21 11.02-1.89 1.99-.91 3.41-3.03 4.16-3.41 2.16-1.12 14.03 1.55 17.63 1.65 4.01.12 8.4-.84 12.39-.09 6.48 1.22 13.36 4.29 20.1 5.09l20.16 9.69c.97.04 2.1-1.77 3.23-2.32 1.64-.8 5.85-2.37 7.54-2.34 1.02.02 2.2.66 3.11.54 1.12-.14 2.27-1.19 3.41-1.54 4.25-1.29 6.56-1.3 9.77-5.04 1.22-1.41 1.76-4.21 3.52-4.07 2.99.23.85 4.67.17 6.14-.56 1.19-2.31 3.16-2.72 4.15zm-96.07-8.23-2.22.44.09.44 2.22-.44zm7.47.36-4.09.35c.33.79 1.04.64 1.72.59.44-.03 2.55-.19 2.37-.95zm-31.02 8.96c-.71-1.21-4.81-2.39-5.2-.57 1.63.58 3.47.79 5.2.57m33.42-6.21c-.58-.94-2.2-.84-3.15-.75-2.06.19-5.09.62-7.18.95-4.86.77-9.58 2.29-14.45 2.91l7.15 1.69c6.85 1.61 11.42-3.37 17.65-4.8zm-28.46 6.28c-1.08-.78-3.47-1.35-3.93.42-.07.28 5.76 2.02 5.33 1.25-.64-.36-.84-1.26-1.39-1.67zm91.1 52.86c3.13.84 6.3 2 9.6 1.78.6-.84-6.19-5.01-7.06-5.3-.49-.73.35-.91.92-.8.64.12 6.37 3.63 7.16 4.28.86.71 1.44 2.09 2.01 2.48 2.04 1.39 11.06 1.9 6.27 6.5 5.43 3.41 11.31 6.23 15.97 10.7l2.01.73c-.31-.33-.28-3.8.8-2.93.11.09-.13 2.01.14 2.92.21.7 3.18 6.13 4.13 4.55-.16-2.45-1.72-3.48-2.47-5.5 1.39.19.98-1.59 2.22-1.35 2.01.39 1.92 5.25 2.31 5.49.12.08 1.17-.27 1.78-.09.67.2 1.46 1.21 1.93 1.2.61-.02.98-1.08 1.11-1.11.69-.18 2.6 6.3 5.01 5.46.53-.91-4.74-16.46-6.1-17.7-.4-.36-1.18-.35-1.48-.66-.76-.79-1.21-5.49-1.77-7.16-1.7-4.99-8.36-14.96-11.57-19.61s-7.12-9.39-12.06-12.51c-.54.11-.34 3.3-1.91 3.14-1.13-1.27.07-4.17.03-4.4-.11-.54-2.5-.74-3.08-.99-.47-.21-.73-.81-1.31-1.06-1.55-.67-4.73-.61-4.63-2.86.16-3.48 6.59-1.84 7.39-3.58.2-.44.11-2.56-.22-2.88-.36-.35-2.65.26-3.28-.55 4.93-5.25-.9-6.93-5.51-7.92-.2.04-.1 2.55-1.13 3.5-3.37 3.08-1.77-3.3-2.39-3.71-3.32.7-9.05 2.09-6.14 6.3-3.61 1.1-6.39-2.07-9.12-3.97-.42-.29-.85-1.69-1.54-.83-.07.09 1.08 1.44.88 2.13-.93 1.36-7.7-1.67-9.11-2.23-4.71-1.88-9.36-4.93-14.43-6.65-2.61-.89-9.77-2.8-12.32-2.9-1.65-.06 1.08 1.03 1.28 1.55.29.74-.13 1.73.38 2.27.19.2 4.2 1.73 5.1 2.22.72.39 1.12 1.23 1.97 1.67 2.14 1.1 13.42 4.14 6.43 6.82l.93-2.25c-2.84-2.71-5.7-1.42-8.9-1.68-2.9-.23-6.28-2.04-9.04-2.61s-7.78-.63-10.47-.47-9.26 3.13-9.97-1.22c3.95 2.87 9.67.55 14-.49-.13-.75-1.35-.5-1.51-.63-1.66-1.27 3.16-.67 3.46-.56.41.16.68 1.11 1.93 1.45 2.56.7 6.49.08 9.28.81-1.01-.98-3.26-2.38-4.57-2.67-1.38-.3-2.93.24-3.82-.05-.34-.11-2-1.71-2.72-1.99.8-.67 6.37 1.72 4.94-.76-.14-.24-4.62-1.86-5.27-1.93-2.62-.28-3.18.66-4.9.91-.74.11-1.39-.65-2.78-.35-5.94 1.28-10.08 5.99-16.66 5.91-1.5-.02-3.29-.29-4.74-.68-.03.91.66.96 1.23 1.33 5.21 3.35 9.88 6.95 14.97 10.47 6.88 4.76 16.06 9.63 22.33 14.61.62.5 2.61 2.06 2.76 2.62.17.63-.78 1.5-.33 2.69.11.3.77.2 1.01.45.99 1.01 3.87 4.44 5.23 4.16 1.65-.34 3.35-4.82 5.11-5.65.66 1.2-2.12 3.2-2.11 3.46.14 3.51 6.55-1.59 2.73 4.27 3.2-1.02 4.69-4.98 7.96-5.28 2.35-.14-3.07 4.32-3.46 4.63-2 1.6-6.46 3.74-7.5 5.4-.71 1.12-2.47 6.07-.1 6.02 1.63-.04 2.88-7.59 4.83-4.41-.03 1.12-8.47 11.55-9.69 13.96-2.12 4.19-3.49 9.46-5.82 13.84-1.8 3.4-9.01 16.4-12.36 8.51 2.47.46 1.62 2.22 4.51.5 1.74-1.03 5.14-5.85 6.26-7.77.31-.54.95-2.12 1.12-2.73.2-.71.55-.52-.46-1.06-3.62 4.25-9.61 7.17-13.22 11.21-3.87 4.32-12.2 16.7-15.08 21.92-.4.72-.81 1.43-.92 2.27.82.42 4.1-3.51 4.93-4.22 7.9-6.76 16.93-11.34 24.28-17.7.69-.6 3.89-3.74 4.57-3.3s-.52 2.96 1.82-.52c1.59-2.37 2.11-.33 1.74 1.54-.64 3.19-3.45 4.1-3.37 8.93.13 7.64-.73 15.35-1.91 23-.29 1.89-1.43 4.14-.92 5.94 2.06-4.79 3.08-9.84 5.25-14.6.95-2.09 3.71-5.9 4.21-7.63.28-.97-1.18-1.18-1.13-2.21.03-.53.77-1.14.93-1.73.97-3.49 1.25-7.76 3-10.71 1.29-2.19 3.1-4.59 3.9-7.01.49-1.49.44-6.04.92-8.26.66-3.02 3.67-12.99 5.24-4.98.93-1.19 1.4-3.17 2.83-3.91 1.33-.68 2.3-.81 4.12-1.86.6-.35 2.84-1.19 2.92-1.33.55-1.03-2.47-4.25 4.37-3.85 1.87.11 4.53 1.47 5.9 1.84l-1.29.49c.5.39.84.68 1.46.4l-.17-.89zm-24.78-54.68c-4.64-2.76-10.22-4.17-15.64-4.27l13.59 4.16 2.05.1zm-50.31 9.58c-2.54-1.75-4.83-4.79-8.26-4.35.02.9.83 1.15 1.47 1.54 1.76 1.07 4.79 2.73 6.79 2.81m37.06-4.15c-.16-.1-2.09-.16-2.31 0-.13.64 2.06.68 2.39.44-.05-.14-.01-.39-.09-.43zm18.31-.9c-.49-.76-1.7-1.09-2.49-.88.49.76 1.7 1.09 2.49.88m39.01 5.63c-.05-.85-.3-1.54-1.23-1.6.05.85.3 1.54 1.23 1.6m-67.19 19.88c.74-1.6-4.27-3.9-4.79-3.2-.57.76 4.12 3.17 4.79 3.2m-.62 1.51c-.08-.07-1.94-.49-1.29.48.74 1.09 2.13.22 1.29-.48m12.79 17.79-1.54 1.47-6.64 13.1c.87.03.96-.68 1.38-1.19 1.08-1.35 8.12-12.44 6.8-13.37zm28.35 5.43c-.35-1.75-2.12-1.42-1.77.35zm-31.82 7.28c-.78-.42-6.53 7.51-7.03 8.79 1.06-.13 1.58-1.18 2.45-1.67.65-.37 1.48-.01 1.98-.55.83-.89 1.68-5.2 2.6-6.57m27.73-2.3c-1.23.51-3.26 1.59-2.57 3.28zm10.09.48c-2.58-.6-6.51 1-4.22 2.08 1.89.9 3.63-1.59 4.09-1.31 1.25.75-2.5 1.86-1.33 2.57.54.33 7.93.11 7.59-1.28-.23-.94-4.62-1.29-5.48-1.48-.38-.08-.54-.56-.64-.58zm20.3 1.3c-2.58-2.62-6.46-3.12-9.95-3.56-.03.98.7.91 1.29 1.23 2.36 1.3 6.05 3.29 8.66 2.32zm-38.93 8.7c.59.4 3.79-4.35 3.19-4.8-.63.33-3.99 4.25-3.19 4.8m-28.71 2.03c-.55-.34-2.02.99-1.95 1.77.92.29 2.81-1.25 1.95-1.77m24.72-1.23c1.07-.67 1.18-1.79.79-2.93-1.07.67-1.18 1.79-.79 2.93m32.52-6.03c.53-.73-3.19-3.13-3.85-.85zm-26.39 6.66c-1.97.4-1.96 3.26-2.72 4.26s-2.01 1.39-3.03 2.88c-1.15 1.68-2.47 4.75-3.24 6.7-.6 1.52-1.47 3.73-1.51 5.35l10.49-19.19zm-25.34 16.61c-1.38-.68-9.77 6.45-11.25 7.71-3.05 2.59-7.31 6.29-10.04 9.09-.39.4-.92.9-.93 1.49 3.71-1.65 6.47-5.15 9.61-7.64 3.31-2.62 7.17-4.95 10.45-7.66 1-.83 2.1-1.6 2.16-2.99m-13.69 7.82c-2.95 1.27-5.97 3.65-8.52 5.68-2.7 2.14-6.38 5.23-8.84 7.58-1.21 1.16-6.37 6.87-6.05 8.28.06.28.95.74 1.24.07l22.18-21.61zm-14.3 5.48c.41-.7.5-1.29-.41-1.62-.8 2.27-10.79 13.06-10.32 14.29.35.92 1.09.2 1.5-.15 3.58-3.07 4.78-6.69 7.18-10.43.48-.75 1.65-1.43 2.04-2.1zm117.4-19.13c.13 1.67.84 2.92 2.35 3.68 1.34-1.68-.47-3.88-2.35-3.68m14.3 6.85c.38-.8-2.54-7.79-3.55-6.22.61.89.97 1.94 1.3 2.96s.15 3.59 2.25 3.26m-9.51-1.34c-.23-1.08-.17-2.76-1.5-2.93.52.69.64 2.77 1.5 2.93m2.41 2.75c1.28-.85.61-4.41-1.25-3.91zm-135.28 26.09c-.66-.46-1.74 1.82-1.33 2.57.59-.33 1.84-2.22 1.33-2.57m138.3-27.15c-1.21.12-.72.13-.75.84-.15 3.85.8 5.7 4.08 7.73 1.07-1.24.52-4.9-.57-5.77-.84-.67-2.92.22-2.76-2.8m-7.56 3.82c-.37-.25-.99-.05-.73.8.51 1.61 1.62 3.25 2.2 4.81 1.09 2.95 1.89 6.46 3.02 9.33.68 1.73 1.48 2.8 3.32 3.39l-2.66-10.74c-2.73-.65-1.55-.77-2.44-2.69-.3-.65-2.49-4.73-2.72-4.88z"/></svg>