<svg width="298" height="22" viewBox="0 0 298 22" fill="none" xmlns="http://www.w3.org/2000/svg">
<path d="M294.064 19.9788C292.261 20.0871 289.914 20.1894 288.142 20.2411C287.586 20.2575 287.867 20.2003 287.483 20.2086C286.734 20.2241 286.038 20.2777 285.301 20.2875C285.057 20.2901 285.36 20.2003 285.104 20.2042C283.701 20.2248 282.381 20.2956 280.973 20.3301C274.043 20.492 267.422 20.641 260.146 20.7593C257.793 20.7993 254.959 20.724 252.576 20.8355C252.298 20.849 252.465 20.9848 252.412 20.9975C251.584 21.1937 251.857 20.9045 251.316 20.8779C249.168 20.7733 246.802 20.7971 244.771 20.8928C243.908 20.9339 244.775 21.2236 243.905 21.0687C243.845 21.0581 244.062 20.8901 243.826 20.8767C243.281 20.8465 242.301 20.8927 241.837 20.8866C240.986 20.8733 240.846 20.877 240.044 20.8871C238.947 20.8998 237.649 20.8313 236.485 20.8865C236.236 20.899 236.566 21.0753 236.17 21.1122C235.773 21.1491 234.727 21.1499 234.375 21.1114C234.023 21.0731 234.172 20.9257 234.109 20.8933C233.595 20.6178 232.394 21.0229 232.24 21.0359C229.424 21.2415 227.034 21.0417 224.444 21.0665C222.478 21.0872 220.395 21.1875 218.555 21.1927C216.393 21.1981 214.295 21.097 212.085 21.1291C211.849 21.1323 212.126 21.3827 211.837 21.3874C208.774 21.4375 205.772 21.4277 202.803 21.2592C202.505 21.2419 202.889 21.0103 202.592 20.9791C200.769 20.7951 197.923 20.3241 196.861 21.3507C195.632 21.3117 194.247 21.2711 193.047 21.0598C192.306 20.9238 193.027 20.665 192.117 20.7738C191.913 20.7981 192.178 21.0269 191.871 21.0462C190.578 21.1275 189.176 21.0493 187.914 21.1644C187.657 21.1884 187.726 21.3953 187.653 21.4323C187.04 21.7327 186.031 21.2306 185.811 21.1931C184.136 20.9153 182.92 21.0155 181.38 21.0004C181.023 20.9967 181.443 21.2802 181.1 21.2868C179.318 21.3177 177.49 21.2821 175.779 21.1433C175.398 21.1117 175.751 20.873 175.569 20.8455C174.769 20.7269 174.587 21.1819 173.823 21.0769C173.662 21.0553 173.755 20.849 173.726 20.826C173.269 20.4648 172.866 20.9672 172.748 20.9774C171.19 21.1162 170.143 20.5763 168.621 20.6348C168.438 20.6423 168.847 20.9097 168.333 20.9148C166.799 20.9308 165.238 20.9159 163.691 20.8711C161.787 20.8159 159.902 20.7157 158.106 20.573C157.6 20.5331 157.964 20.3409 157.933 20.3161C157.419 19.9279 157.077 20.4326 156.912 20.4493C155.613 20.5676 154.419 20.1214 153.539 20.7131C147.883 20.4099 142.108 20.6293 136.739 19.9674C136.67 19.9596 136.799 19.7158 136.662 19.7014C135.016 19.5249 135.325 19.9153 134.23 20.3555C133.975 20.4662 133.087 19.8803 133.009 19.8373C132.725 19.6782 133.033 19.3209 132.937 19.2891C132.145 19.039 132.245 20.2474 131.175 20.2194C131.142 20.2165 131.288 19.9988 131.198 19.9744C130.922 19.8981 130.644 19.9788 130.374 19.8955C129.757 19.7029 129.551 19.115 128.6 19.4292C128.48 19.4699 128.643 20.1542 127.705 20.0958C127.329 20.0721 125.682 20.0365 125.227 19.9793C124.77 19.9222 125.09 19.7141 125.058 19.7037C123.835 19.3811 124.305 19.2755 123.703 18.834C123.102 18.3946 123.244 19.4067 122.991 19.5117C122.737 19.6163 121.853 19.3538 121.637 19.2656C121.421 19.1773 121.697 19.0483 121.505 18.9963C120.23 18.6566 120.927 19.477 120.5 19.623C119.495 19.9674 118.748 19.202 117.853 19.1022C117.61 19.0751 117.803 19.2492 117.587 19.258C116.748 19.2908 116.184 19.0435 115.131 19.2186C114.958 19.2474 114.1 19.6577 113.568 19.3167C113.492 19.2677 113.717 19.0934 113.329 19.0395C112.751 18.9587 111.713 18.8837 111.096 18.9224C110.64 18.951 111.15 19.2668 110.582 19.1539C110.33 19.1037 110.806 18.9467 110.331 18.8669C109.859 18.7874 108.656 18.752 108.201 18.7413C107.747 18.7308 107.988 18.9633 107.95 18.9771C107.725 19.0552 106.853 19.1295 106.777 19.1262C102.962 19.0034 99.4239 18.4897 95.509 18.4363C95.2075 18.4318 95.3983 18.6662 95.3522 18.6678C94.3192 18.7148 95.1556 18.1534 94.4478 17.9218C94.5315 18.3822 94.1112 18.2807 93.3921 18.2975C93.0458 18.3058 93.226 18.49 93.1937 18.5066C92.6701 18.7487 92.3316 18.3877 92.2436 18.3135C91.9186 18.0397 91.5397 18.327 91.3199 18.1441C91.1003 17.963 91.635 17.7343 90.9578 17.7065C90.7607 17.8583 91.2434 18.3024 90.7269 18.3455C88.7958 18.5086 85.2134 17.9948 83.5206 17.8719C81.9007 17.7518 81.3872 17.7513 80.4626 17.6443C78.8014 17.4512 79.3964 17.781 78.3635 17.8549C77.3329 17.9276 77.8711 17.2383 77.7327 17.0752C77.5975 16.9128 77.4318 17.0629 77.2583 16.9682C77.0855 16.8737 77.4758 16.7901 77.0601 16.7354C76.6431 16.6814 75.496 16.8902 75.3418 17.0403C75.0143 17.3594 75.4981 17.7445 74.4206 17.5525C74.3588 17.5413 74.5717 17.3683 74.3345 17.3349C72.4322 17.0754 70.1886 16.9251 68.2413 16.6744C67.9697 16.6395 68.2264 16.4568 68.0685 16.4344C66.4314 16.2014 66.9989 16.5736 66.0812 16.8792C66.315 16.4041 65.8367 16.0724 64.621 15.9897C63.8922 15.9394 64.0037 16.1583 63.525 16.2734C63.3812 16.3079 62.8817 16.1287 62.783 16.2203C62.4578 16.5186 62.9071 16.9122 61.693 16.6771C61.6347 16.666 61.8339 16.5059 61.6311 16.4802C60.3115 16.3128 60.1295 16.6308 58.7256 16.5581C57.6246 16.5006 55.7319 16.1476 54.5461 16.0166C54.6104 15.5136 53.4798 15.5401 53.0044 15.8441C52.2284 15.7632 51.4853 15.7169 50.6717 15.5976C50.397 15.5572 50.5906 15.4324 50.557 15.414C50.0443 15.1289 49.66 15.4229 49.482 15.4192C47.5573 15.3671 46.0705 14.9863 44.3319 15.0461C44.2705 15.0486 44.1401 15.3572 43.7076 15.0782C43.6799 15.0594 44.255 14.9711 43.4571 14.8796C42.6724 14.7883 41.1794 14.4689 39.9312 14.4791C39.6388 14.483 38.8883 14.6486 38.3382 14.3935C38.2649 14.3592 38.3573 14.2823 38.2528 14.2223C37.915 14.0313 37.6894 14.3113 37.3064 14.01C36.9241 13.7085 36.0936 13.4312 34.9637 13.4776C34.9279 13.4787 34.6379 13.6796 34.293 13.6349C34.0165 13.5993 33.6917 13.5472 33.3548 13.4943C32.9777 13.4366 32.6014 13.3795 32.2837 13.3413C31.9799 13.3049 32.1573 13.4675 32.1042 13.4636C30.0636 13.2861 28.6954 12.9803 26.7302 12.6566C26.4174 12.6046 25.2055 12.607 24.4619 12.3568C23.6524 12.085 24.575 11.6006 22.6867 11.4734C21.9257 11.424 20.9179 12.0209 19.6801 11.4222C16.807 11.0234 14.7777 10.4617 11.9843 9.96078C11.868 9.94021 11.4682 10.03 11.2088 9.96498C10.8234 9.86861 10.6372 9.73913 10.3738 9.66874C9.11872 9.33413 7.92279 9.07395 6.89463 8.74393C6.51224 8.62023 6.64602 8.58389 6.09351 8.39955C5.54231 8.21252 5.15149 8.18154 4.51948 7.88904C4.27003 7.77308 4.11779 7.6511 3.81648 7.46473C3.52499 7.2816 3.23243 7.09343 2.91363 6.92596C2.86074 7.00318 2.71978 6.9859 2.50608 6.90528C2.28165 6.81579 2.05665 6.71649 1.58475 6.43419C1.42513 6.33694 1.55566 6.50096 1.47831 6.45728C1.16281 6.27843 0.965346 6.05154 0.746335 5.88549C0.691494 5.8427 0.656403 5.89185 0.591419 5.83838C0.326543 5.62694 0.110064 5.28624 0.0427334 4.99576C-0.0478381 4.67011 0.0277732 4.36367 0.0540598 4.29293C0.285253 3.71168 0.413907 3.53367 0.815582 3.19412C1.14331 2.96636 0.704706 3.37143 1.08212 3.09638C1.48149 2.81348 2.11055 2.49109 2.6229 2.27819C2.90144 2.16025 3.20211 2.04448 3.51325 1.93524C3.7955 1.83625 4.04035 1.75714 4.30043 1.67835C4.7131 1.55535 4.41374 1.57839 4.47236 1.55933C5.37046 1.28099 6.24619 1.15103 6.71112 0.935017C7.37164 1.10788 7.30291 0.776405 8.53841 0.630181C8.63748 0.619224 8.78085 0.72764 8.41197 0.810754C8.06945 0.889907 7.42424 0.964404 6.90282 1.10771C6.77294 1.13982 6.10293 1.43171 6.01781 1.46427C5.32876 1.7049 5.09471 1.54159 5.065 1.53479C4.54397 1.53029 3.77946 1.93767 3.57966 2.02691C3.03072 2.24839 2.58051 2.44525 2.2003 2.63732C1.79023 2.8417 1.34956 3.11241 1.08554 3.36272C0.678634 3.7575 0.786001 3.94575 0.659391 4.19776C0.480914 4.68073 0.623085 4.99742 0.931158 5.41797C1.20796 5.76224 1.52634 6.03511 2.27345 6.33151C2.54204 6.41615 2.34773 6.09295 3.21675 6.70221C3.24572 6.72157 3.4263 6.85279 3.68567 6.99552C3.81505 7.0668 3.96388 7.14081 4.11759 7.20384C4.23395 7.25139 4.3528 7.28788 4.4622 7.30178C4.51724 7.30871 4.5401 7.24597 4.60887 7.26572C5.07357 7.39909 5.37519 7.56243 5.95035 7.72301C6.23424 7.80145 6.5887 7.8949 6.91278 7.98012C7.19462 8.05233 7.49347 8.133 7.79065 8.22767C8.14654 8.34108 8.60015 8.60235 8.77976 8.68429C9.28089 8.91741 9.92425 8.90927 10.2539 9.11226C10.5366 9.30588 9.89591 9.34135 10.6661 9.61021C10.743 9.42281 10.8593 9.23871 10.9543 9.05302C12.6606 9.44681 14.8125 9.94189 16.5279 10.232C16.7593 10.2713 16.5449 10.1117 16.7943 10.1503C17.8507 10.3125 18.8021 10.5591 20.0104 10.7122C20.8101 10.8071 21.7343 10.804 22.6324 10.8929C23.1296 11.2478 24.5008 11.3432 25.5351 11.5045C25.8963 11.5614 25.8614 11.6362 26.1181 11.696C26.9921 11.906 26.6069 11.5902 26.8532 11.5793C27.8995 11.5272 27.9027 12.138 29.1564 12.28C29.2215 12.2885 30.0868 12.0581 30.2055 12.0498C30.9525 11.9989 30.3105 12.1791 30.7663 12.257C31.6026 12.399 32.1869 12.5494 33.2284 12.5629C33.5638 12.5707 34.1781 12.4154 34.6941 12.6393C34.7604 12.6686 34.7089 12.7804 34.7636 12.793C35.7599 13.0137 35.8335 12.6494 36.4355 12.5814C37.038 12.5128 37.9397 12.86 38.1236 12.9547C38.6017 13.1984 37.7321 13.0004 37.7045 13.0168C37.3648 13.2114 38.0458 13.2409 38.5707 13.3126C38.6057 13.6929 39.3494 13.7468 39.1164 13.3854C39.0894 13.346 38.6741 13.3402 38.5707 13.3126C39.0717 12.9933 39.8905 13.0177 40.7774 13.4544C41.1822 13.6582 40.8001 13.8167 42.0586 13.8656C42.5994 13.8842 42.4178 13.5977 42.9026 13.5673C44.0105 13.4961 45.4413 13.8747 46.6313 13.9346C47.063 13.9556 46.6577 13.768 46.9536 13.7767C47.74 13.7986 48.4293 13.9709 49.2425 13.9748C49.3163 13.9749 49.1516 13.7975 49.4034 13.8148C51.4029 13.9494 52.8072 14.1571 54.7164 14.2952C55.6255 14.361 57.2944 14.3776 58.2775 14.461C59.9616 14.6035 62.1604 15.008 63.4618 15.0229C64.3625 15.0363 64.1795 14.8401 64.575 14.737C65.3376 14.5353 66.6531 15.0504 66.8323 15.1308C66.8372 15.1335 66.0417 15.1314 66.4581 15.2521C66.6908 15.4668 66.8234 15.1313 66.8323 15.1308C66.9462 15.182 68.5443 15.3168 68.8709 15.2984C69.0468 15.2884 68.9607 15.1029 69.0522 15.1009C71.1948 15.0565 73.5842 15.1296 75.5719 15.312C75.6086 15.3176 75.5408 15.5244 75.6273 15.535C76.8377 15.6888 77.642 15.4693 78.6751 15.3609C79.7092 15.2529 80.5308 15.3392 81.1294 15.7382C81.9192 15.7272 83.0537 15.9429 83.7129 16.0737C84.3716 16.2046 84.4877 15.7813 84.5465 15.7753C86.4246 15.5835 87.3945 15.8676 89.1675 15.9778C90.0125 16.0307 91.7168 16.0328 92.6611 16.0191C93.4061 16.0075 93.8521 16.1286 94.5474 16.087C94.6416 16.0814 94.5556 15.8788 94.5845 15.8722C95.3691 15.6609 94.9761 16.1354 95.1322 16.2283C95.7001 16.5664 96.0519 16.7505 97.0638 16.6377C97.2971 16.6123 98.0049 15.9268 98.4334 15.8988C98.9907 15.8644 98.7703 16.1128 99.3562 16.0705C99.4064 16.0671 99.4022 15.9089 99.763 15.9276C101.528 16.016 103.062 16.1555 104.74 16.1907C104.965 16.1959 104.687 15.9321 105.011 15.9351C106.533 15.9494 108.224 16.0061 109.743 16.1698C110.117 16.211 109.876 16.3861 109.955 16.4423C110.444 16.7835 111.174 16.3287 111.292 16.3225C114.077 16.1682 116.439 16.6663 119.084 16.5223C119.233 16.5142 120.401 16.0186 120.906 16.4792C120.941 16.5098 121.439 16.982 121.904 16.6783C121.933 16.6592 121.619 16.4148 122.178 16.4519C122.737 16.4892 123.647 16.3506 124.419 16.6299C124.663 16.7177 125.234 17.1941 125.985 16.8419C126.034 16.8178 127.203 16.006 127.6 16.5922C127.665 16.6887 127.577 17.299 128.48 17.005C128.653 16.9478 128.346 16.8045 128.799 16.7288C129.493 16.6119 130.41 16.7959 131.277 16.5393C131.428 16.494 132.077 16.0882 132.585 16.4159C132.664 16.4673 132.506 16.6702 132.778 16.6987C134.127 16.8368 135.297 16.7206 136.548 16.8877C136.984 16.9463 136.753 17.2772 137.207 17.3759C137.662 17.4746 138.584 17.5792 139.07 17.4347C139.556 17.29 139.04 16.7444 139.764 16.7145C142.916 16.5837 146.093 16.9526 149.367 17.0512C149.853 17.0658 149.453 16.8657 150.17 16.8732C152.967 16.9028 157.042 16.7776 159.305 17.2219C161.069 17.5773 158.838 17.7994 160.19 17.9526C160.842 18.0259 161.562 17.4025 161.721 17.3846C162.472 17.2966 163.114 17.3199 163.736 17.3598C164.401 17.4023 165.043 17.4637 165.775 17.4284C166.067 17.4143 165.783 17.1542 166.033 17.145C166.884 17.1112 167.782 17.2369 168.604 17.2261C168.972 17.2207 168.907 17.0242 169.246 17.0435C170.059 17.0875 170.78 17.1786 171.577 17.3714C171.65 17.3889 171.156 17.6262 171.763 17.6424C172.783 17.6685 173.845 17.8613 174.926 17.6878C175.241 17.6355 175.257 17.1908 175.933 17.5061C176.075 17.5719 175.888 18.1035 176.685 17.6516C176.818 17.5762 178.159 16.9716 178.815 17.3795C178.988 17.4868 179.429 17.9269 179.815 17.8628C179.867 17.8525 179.659 17.6125 179.979 17.593C181.105 17.5285 182.291 17.5675 183.462 17.507C183.774 17.4904 183.31 17.2406 183.776 17.2239C185.058 17.1777 186.669 17.2595 187.94 17.3501C188.409 17.384 188.084 17.5806 188.118 17.6029C188.664 17.9635 188.993 17.4886 189.175 17.463C190.313 17.3096 191.182 17.5435 192.24 17.4963C192.532 17.4839 192.326 17.2557 192.384 17.2362C192.988 17.0468 192.537 17.4468 192.919 17.4959C194.022 17.6345 195.11 17.6286 196.134 17.6119C196.508 17.6055 196.088 17.3416 196.425 17.339C198.414 17.3191 200.503 17.3712 202.481 17.5345C202.854 17.5656 202.619 17.7576 202.697 17.803C203.232 18.1195 204.02 17.7041 204.202 17.6665C205.027 17.4928 205.349 17.6676 206.081 17.6441C209.649 17.5287 214.18 17.696 217.633 17.7997C221.89 17.9369 225.249 18.1366 229.436 18.1381C229.703 18.1385 229.433 17.9133 229.663 17.9112C232.629 17.8956 235.585 18.0156 238.629 17.9931C238.879 17.9919 238.517 17.7921 238.918 17.7841C239.741 17.7665 240.787 17.7932 241.626 17.8656C242.035 17.9003 241.488 18.0555 241.899 18.0865C242.837 18.159 243.775 18.1837 244.71 18.1662C245.105 18.1586 244.507 17.9631 245.021 17.9685C248.522 18.0007 252.006 18.0369 255.641 18.2982C255.89 18.3165 256.111 18.6483 256.642 18.5896C256.681 18.4994 256.678 18.3928 256.694 18.2962C261.86 18.3188 267.505 18.4908 272.457 18.5722C272.673 18.5759 272.298 18.4404 272.717 18.4477C275.139 18.488 277.511 18.5041 280.032 18.6491C280.282 18.6631 280.156 18.8473 280.893 18.8261C281.023 18.8222 282.136 18.8092 282.424 18.7754C282.463 18.7703 282.258 18.6865 282.618 18.6894C284.707 18.7079 286.913 18.7614 289.03 18.827C289.371 18.8376 289.009 18.8999 289.252 18.9074C290.978 18.9559 292.866 18.9304 294.535 18.9911C295.653 19.0291 295.24 19.1103 295.836 19.1881C295.92 19.1988 296.614 19.1967 296.651 19.2395C296.745 19.3466 296.41 19.4744 296.55 19.5886C296.58 19.6131 297.509 19.5535 296.96 19.6324C296.921 19.6377 296.248 19.6835 296.082 19.7119C295.967 19.7317 296.176 19.7685 295.941 19.7982C295.706 19.8285 295.446 19.8003 295.057 19.8414C294.668 19.8836 294.84 19.9322 294.064 19.9788ZM86.7036 16.6629C87.265 16.8964 87.3866 16.1382 86.7595 16.294C86.7292 16.3024 86.6747 16.6514 86.7036 16.6629ZM14.6586 10.1942C15.3282 10.4995 15.8835 10.3451 15.3964 10.1192C14.9201 9.89744 14.4381 10.0991 14.6586 10.1942ZM6.76695 8.40348C7.52604 8.75434 7.7905 8.33718 6.91077 8.17925C6.86065 8.16999 6.72353 8.38326 6.76695 8.40348ZM293.086 19.2285C293.094 19.2311 293.59 19.2302 293.602 19.2277C293.865 19.1673 292.874 19.1654 293.086 19.2285ZM0.229548 4.51732C0.137691 4.83921 0.582161 5.42669 0.477306 5.12266C0.43573 4.99676 0.353944 4.82096 0.316112 4.63417C0.282059 4.46754 0.269138 4.3558 0.229548 4.51732ZM117.841 18.6873C117.85 18.7002 118.184 18.7218 118.18 18.6501C118.164 18.419 117.696 18.4702 117.841 18.6873ZM12.4944 0.215301C10.4957 0.417962 9.26999 0.37287 11.4374 0.14408C11.8263 0.105312 10.6089 0.299343 11.1038 0.262126C12.0085 0.190187 12.6173 0.0154605 13.6022 6.72117e-05C13.7774 -0.00574406 12.6052 0.200933 12.4908 0.215914C12.492 0.215713 12.4932 0.215502 12.4944 0.215301ZM86.988 17.5915C86.9988 17.6021 87.4585 17.6342 87.4702 17.6247C87.7312 17.3944 86.805 17.3309 86.988 17.5915ZM138 19.7551C138.025 19.7806 139.119 19.8282 139.156 19.806C139.737 19.3598 137.524 19.2637 138 19.7551ZM54.5284 16.0016C53.9987 16.157 53.3885 16.1254 53.0066 15.8445C53.5073 15.9009 54.0164 15.9462 54.5284 16.0016Z" fill="#A72C2C"/>
</svg>
