<svg width="250" height="143" viewBox="0 0 250 143" fill="none" xmlns="http://www.w3.org/2000/svg">
<path d="M249.754 117.674C249.774 117.385 249.668 115.724 249.605 115.437C249.491 114.92 248.866 114.065 248.909 113.78C248.943 113.581 249.345 113.425 249.446 112.946C249.55 112.448 249.673 110.917 249.478 110.49C249.337 110.184 248.846 109.917 248.669 109.614C248.092 108.705 247.778 107.53 247.163 106.579C245.469 103.947 243.981 102.901 243.162 99.7004C243.027 99.1674 243.184 98.648 242.947 98.0475C242.693 97.421 241.726 96.5186 241.546 95.9751C241.198 94.945 241.346 95.2195 240.804 94.2095C240.271 93.2126 239.822 91.4064 239.283 90.3318C238.849 89.467 237.943 88.5027 237.595 87.5709C237.181 86.4708 237.167 85.5734 236.358 84.4464C235.976 83.9101 234.83 83.1185 234.664 82.8181C234.437 82.427 234.797 82.5546 235.013 82.4854C234.433 82.1425 234.687 81.7113 234.481 81.2815C232.593 77.5141 226.864 76.8605 223.19 75.1288C221.078 74.1329 219.972 73.5689 217.624 72.8232C217.075 72.6511 216.669 72.1199 215.82 72.4229C215.849 72.1463 216.035 71.9063 216.075 71.6323C216.156 71.0842 215.514 67.1287 215.273 66.6471C215.16 66.4244 214.547 66.3245 214.581 65.5255C214.592 65.1248 215.078 65.0639 215.066 64.8648C215.063 64.7226 214.713 64.6079 214.661 64.4759C214.547 64.2092 214.754 63.6253 214.499 63.2057C214.364 62.9778 213.942 62.8138 213.847 62.617C213.695 62.3089 213.916 61.7173 213.817 61.3343C213.54 60.201 212.655 58.6419 212.308 57.5575C211.871 56.2014 212.149 55.0126 211.848 53.5792C211.733 53.0617 211.245 52.0752 211.228 51.7441C211.204 51.4441 211.478 51.2793 211.409 50.9688C211.37 50.7851 210.893 50.2046 210.744 49.8318C209.319 46.1509 208.037 43.3651 207.082 39.4889C206.937 38.8989 206.354 37.8139 206.326 37.3277C206.287 36.8389 206.935 36.0854 205.861 35.8887C205.789 35.7954 206.274 35.6364 206.288 35.5743C206.315 35.4606 204.751 34.2877 204.797 33.6879C204.82 33.388 205.089 33.2439 205.044 32.8843C204.942 32.1083 203.263 30.0145 202.545 29.5083C202.292 29.3293 200.813 28.2962 200.683 28.2442C199.94 27.8957 199.328 28.0907 198.835 27.9317C198.157 27.7075 196.849 26.4965 196.145 26.3317C195.418 26.1618 194.097 26.5178 193.105 26.2747C192.323 26.0917 191.514 25.4664 190.659 25.1901C188.202 24.4079 185.575 24.0986 183.164 23.4691C180.667 22.8084 178.084 22.1604 175.491 21.652C172.405 21.0389 169.937 19.949 166.93 19.1473C164.08 18.3823 161.252 17.3173 158.347 16.6374C154.279 15.6856 150.053 15.1549 145.931 14.3865C143.412 13.9171 140.678 13.1575 138.139 12.8251C136.939 12.6643 137.702 12.6792 137.376 12.5594C137.168 12.489 135.171 11.8581 135.045 11.8396C134.68 11.787 134.408 11.9957 134.162 11.9382C133.748 11.8414 133.443 11.4321 133.145 11.2968C132.01 10.7586 130.475 10.8684 129.084 10.4666C128.521 10.3022 127.822 9.86594 127.272 9.74815C126.679 9.60956 125.67 9.84227 125.295 9.73269C125.04 9.66221 124.718 9.22693 124.292 9.0836C123.669 8.87253 122.697 8.89587 121.956 8.63536C119.462 7.75744 117.167 7.18776 114.593 6.40014C113.196 5.97501 111.832 5.65599 110.358 5.25652C109.217 4.94584 107.748 4.22056 106.583 4.11152C106.191 4.0743 106.071 4.53687 105.999 3.88762L103.613 3.50389C103.502 2.76919 103.21 3.31148 102.883 3.30029C102.661 3.29196 102.506 2.99418 102.182 2.91835C101.758 2.81898 100.815 3.06738 100.738 2.99477C100.69 2.95068 101.088 2.76035 100.73 2.52411C99.4607 1.70366 97.7427 2.44655 96.4178 1.30789C96.2496 1.1704 96.3626 0.989673 96.3538 0.976721C96.2741 0.914451 96.0348 1.13105 95.8463 1.13056C94.6571 1.1249 93.4877 0.0771485 92.928 0.000706665C92.7667 -0.0152267 92.702 0.362152 92.4528 0.369265C92.2148 0.378992 91.5561 -0.0804251 91.0718 0.0243447C90.8601 0.0729293 89.1188 0.864892 88.9844 0.986083C88.8155 1.15373 88.89 1.38924 88.7003 1.59563C88.3024 2.03679 87.8747 1.8495 87.6232 2.5212C87.5549 2.71238 87.6606 2.96608 87.5971 3.13658C87.5593 3.24768 87.2848 3.16163 87.1358 3.34485C86.753 3.82226 86.1592 5.10077 85.9039 5.33543C85.767 5.46695 85.4036 5.45825 85.2196 5.58966C82.823 7.31862 81.3886 9.469 79.6751 11.8048C79.3122 12.2978 77.9568 12.7003 78.7671 13.217C78.0125 13.5202 77.9438 13.864 77.896 14.5724C76.5528 14.1164 75.3784 16.8182 74.8053 17.0003C74.7558 17.0105 74.5399 16.7747 74.5238 16.7927C74.496 17.1133 74.0058 18.0999 73.7835 18.2441C73.5339 18.4038 72.8516 18.146 72.5133 18.383C72.1997 18.615 72.2657 19.0884 72.0343 19.3722C71.7868 19.6741 71.1537 19.5587 71.0217 19.6696C70.7897 19.8552 70.6109 20.871 70.4701 20.9689C70.359 21.041 69.0982 20.8877 70.0218 21.4746C69.7559 21.8049 69.3591 21.3849 69.3319 21.4004C69.2775 21.4313 68.7575 22.1928 68.5158 22.4197C68.1964 22.7266 66.8843 23.7498 66.7511 24.0676C66.6362 24.3569 66.8047 24.7452 66.6995 24.9932C66.6457 25.1223 66.2784 25.08 66.1008 25.2347C65.8799 25.4229 65.9895 25.7102 65.8405 25.8935C65.1103 26.7475 63.5725 27.9796 62.7102 28.9445C62.3443 29.3496 61.2949 30.7614 60.9862 30.9726C60.7206 31.1504 59.7435 30.9435 60.5125 31.3851C60.1028 31.7254 59.5267 31.8196 59.0854 32.0435C58.8591 32.1541 58.7316 32.3968 58.5844 32.4714C58.3582 32.582 57.9534 32.4982 57.9102 32.5317C57.8374 32.591 57.983 33.9335 57.3275 34.2163C56.7294 34.1527 57.1597 33.5228 56.587 33.5523L56.5144 33.8625C56.2181 33.8695 56.4598 33.6425 56.3761 33.5466C56.1315 33.2822 52.812 32.6582 52.1175 32.4521C51.843 32.366 51.6008 32.0913 51.2927 31.9974C49.5273 31.4317 49.165 32.0229 47.6863 32.1458C46.556 32.2412 45.5025 31.9074 44.488 32.7168C44.2834 31.6767 43.5761 32.2308 43.0077 32.1415C41.8396 31.9445 39.0289 30.5563 37.6984 30.1469C37.4015 30.0556 37.2082 30.0758 36.9245 30.1293L37.0358 29.6538C36.4802 29.8618 35.7394 29.3505 35.2814 29.4941C35.1032 29.5506 34.9636 29.845 34.7086 29.9271C34.2123 30.0835 33.6427 29.7976 33.1 30.303C32.8855 30.5145 32.8834 30.7757 32.7305 30.9253C32.6528 31.0053 32.3774 30.9735 32.2332 31.1361C32.0251 31.3708 31.6053 32.3085 31.5373 32.3471C31.4062 32.4036 30.91 32.1567 30.6384 32.1586C30.5218 32.1531 30.4982 32.3547 30.3112 32.3982C30.1874 32.4237 29.9409 32.2679 29.7875 32.3193C29.686 32.35 29.543 32.7091 29.3566 32.8509C28.16 33.683 26.2857 34.6401 24.9363 35.2185C23.9394 35.6503 22.7496 35.5464 22.3146 36.8512C21.8442 37.1991 22.1691 36.5663 22.0045 36.6151C21.716 36.6893 21.6688 37.0926 21.4153 37.2186C21.1754 37.337 20.6885 37.2012 20.5366 37.2965C19.9336 37.657 18.761 38.7892 18.0351 39.1209C17.8632 39.2006 17.5439 39.1041 17.3216 39.2484C17.0745 39.3977 17.291 39.7318 17.2133 39.8118C17.1837 39.8376 17.014 39.6561 16.8814 39.6687C16.0954 39.7029 16.2059 39.9359 15.7053 40.2113C14.5658 40.8497 13.1931 41.4771 12.0711 42.1414C11.6472 42.3911 11.1112 43.1707 10.7272 43.4515C8.87769 44.807 6.22325 45.7233 4.28556 46.8509C3.79374 47.1392 1.85939 48.2022 1.64396 48.468C1.37808 48.7983 1.44021 49.2381 1.25255 49.5867C1.06005 49.956 0.442296 50.1277 0.488996 50.6838L0.860553 50.6072C0.968552 51.2539 0.0994174 51.6939 0.00900597 52.1307C-0.0620555 52.4848 0.293151 52.5788 0.327844 52.7831C0.49047 53.6499 0.512312 54.6145 0.857088 55.4584C0.999285 55.8079 1.60419 56.3964 1.61445 56.4534C1.63497 56.5672 1.31262 56.7862 1.36516 56.8639C1.39143 56.9027 1.8418 56.9427 1.94597 57.1524C2.05405 57.3958 1.79842 57.783 1.86514 57.9513C1.91919 58.0729 2.37348 58.1465 2.4402 58.3148C2.49424 58.4365 2.37064 58.7128 2.43886 58.9251C2.67129 59.6446 3.04585 59.6559 3.30131 60.0755C3.70321 60.7256 3.07903 61.2773 4.24615 61.5286C3.6987 62.0547 4.19894 61.9319 4.41695 62.31C5.12594 63.5117 5.58956 65.1576 6.24842 66.2713C6.28103 66.3334 6.81321 66.5779 6.8781 66.8547C6.96592 67.2351 6.77851 67.8345 6.88418 68.0882C7.17099 68.7768 7.99641 69.3298 8.21534 69.6536C8.33794 69.8349 8.53943 71.1905 8.64935 71.3252C8.73058 71.4315 9.41614 72.028 9.45117 72.0798C9.51247 72.1705 9.38703 72.5555 9.4791 72.8169C9.91803 74.0645 10.9025 75.2979 11.1871 76.2477C11.4805 77.2104 11.7492 78.1783 12.0809 79.1282C12.1425 79.4697 12.7063 80.234 12.9726 80.8088C13.1665 80.8868 13.3187 81.0424 13.3038 81.257C13.2881 81.5259 13.2947 81.8 13.4275 82.0383C13.5335 82.1394 13.6347 82.2612 13.7023 82.3751C13.7938 82.5383 13.7775 82.7089 13.7188 82.8588C13.8245 83.1125 13.8806 83.3764 13.8576 83.6763C14.1577 84.5097 14.3227 85.3661 14.6364 86.1918C14.8254 86.694 15.1669 87.1991 15.2927 87.7192C15.4006 87.7118 15.5084 87.7043 15.5235 87.7405C15.5498 87.7794 15.3893 88.1126 15.4415 88.3428C15.4518 88.3998 15.797 88.6877 15.8598 88.8223C16.7882 90.8495 17.6621 93.311 18.7821 95.0232C19.0074 95.3703 19.2419 96.2321 19.6977 96.3496C20.4081 96.5376 22.1459 95.1561 22.6488 95.2737C22.8947 95.3313 23.5875 95.8968 24.0919 96.0584C25.9069 96.6139 27.834 97.043 29.616 97.689C30.1914 97.8999 30.5106 98.3998 31.0908 98.5901C31.6263 98.7699 32.3661 98.6813 32.9569 98.7759C33.8878 98.9283 34.4456 99.5168 35.3317 99.0045C35.1036 99.2237 36.093 99.6297 36.3404 99.7312C37.8678 100.307 39.8883 100.387 41.3435 101.12C43.1258 102.017 42.8264 102.339 45.1555 102.611C47.4847 102.884 49.9165 103.322 52.0471 104.191C53.6606 104.852 53.8896 104.579 55.2612 104.812C57.0289 105.117 58.7373 105.473 60.4762 105.749C61.7496 105.949 62.689 106.267 63.7072 106.701C64.8099 107.177 65.724 106.999 66.7419 107.182C68.4847 107.492 71.0966 108.169 72.6768 108.669C73.1366 108.82 75.3281 108.472 76.2524 108.753C76.5046 108.834 76.6142 109.122 76.8639 109.213C77.1584 109.314 77.6699 109.194 78.0897 109.314C78.9294 109.554 80.6043 109.903 80.3346 110.853C80.9131 110.749 80.7937 109.849 81.5162 109.985C81.6391 110.014 83.0916 110.506 83.1762 110.548C83.3629 110.657 83.3175 110.952 83.406 111.027C83.5056 111.105 84.3072 111.609 84.3631 111.622C84.6769 111.64 84.8193 111.183 85.8073 111.545C87.1879 112.043 87.3295 112.294 89.0237 112.559C90.0241 112.717 91.0577 113.035 92.0732 113.229C92.2856 113.279 92.588 113.044 92.813 113.141C92.9846 113.214 93.0549 113.568 93.2838 113.698C93.7951 113.981 94.3972 113.675 94.0705 114.416C95.022 114.683 94.1048 113.716 94.679 113.73C94.8428 113.736 94.6161 113.999 94.7965 114.085C95.1547 114.267 96.368 114.572 96.7658 114.534C96.9344 114.519 96.9788 114.279 97.0595 114.287C97.5555 114.283 97.3838 114.614 97.537 114.715C98.4334 115.317 99.4694 115.222 100.474 115.413C100.337 115.795 100.018 116.506 100.09 116.904C100.27 117.895 102.083 118.308 103.019 118.538C103.39 119.072 104.04 118.962 104.503 119.201C104.89 119.412 104.777 119.843 104.821 119.908C105.157 120.336 105.238 119.537 105.267 119.511C105.498 119.38 105.954 120.053 106.288 120.088C106.377 120.109 106.433 119.817 106.575 119.817C106.786 119.823 109.001 120.581 109.275 120.721C109.622 120.901 109.579 121.185 109.646 121.201C110.439 121.386 110.063 120.982 110.962 121.672C111.002 121.703 111.744 121.201 111.814 121.206C112.1 121.241 112.391 121.56 112.758 121.602C113.067 121.641 114.985 121.305 115.575 121.301C117.402 121.304 118.784 121.943 120.499 122.224C122.213 122.506 124.003 122.51 125.737 122.959C126.414 123.14 126.768 123.691 127.207 123.881C128.998 124.638 130.678 123.658 132.708 124.602C132.984 124.732 133.029 124.895 133.239 125.053C133.312 124.994 133.234 124.572 133.454 124.591C133.779 124.612 134.681 124.736 135.007 124.801C135.331 124.877 135.669 125.196 135.963 125.2C136.138 125.208 136.209 124.854 136.463 124.826C136.859 124.798 137.37 125.082 137.801 125.106C139.031 125.187 139.254 125.293 140.386 125.493C142.731 125.9 144.944 126.014 147.361 126.514C151.006 127.258 154.273 127.652 158 127.848C159.91 127.946 164.164 128.102 165.846 128.724C169.708 130.151 174.329 129.695 178.345 130.722C180.682 131.312 183.06 132.13 185.433 132.62C185.544 132.646 185.512 132.333 185.856 132.37C187.881 132.582 189.712 133.676 191.591 134.061C192.478 134.247 193.959 134.113 194.588 134.25C195.314 134.42 196.57 134.844 196.41 135.679C197.044 134.835 196.827 135.308 197.323 135.304C198.971 135.264 199.549 135.16 201.273 135.65C203.527 136.298 205.978 137.056 208.332 137.575C209.058 137.744 210.186 137.659 211.003 138.047C211.958 138.499 211.263 138.904 211.435 139.576C211.583 140.156 213.788 142.722 214.323 142.803C215.039 142.36 216.613 142.434 217.196 142.058C217.546 141.824 217.549 141.508 217.815 141.276C218.084 141.034 220.556 140.293 220.877 140.281C221.315 140.274 221.63 140.642 222.066 140.592C222.43 140.546 222.889 139.846 223.053 139.798C223.466 139.698 224.387 140.295 225.033 139.65C225.824 138.887 225.169 137.305 226.008 136.64C226.197 136.488 226.511 136.507 226.695 136.376C226.968 136.167 227.041 135.802 227.323 135.607C227.618 135.403 228.258 135.488 228.487 135.214C228.679 134.997 228.708 134.47 228.76 134.449C228.815 134.418 229.164 134.587 229.396 134.554C229.688 134.514 231.141 133.545 231.528 133.352C232.157 133.031 232.757 132.735 233.311 132.178C233.59 131.894 233.902 131.215 234.127 131.06C234.406 130.875 234.76 131.023 235.015 130.941C235.309 130.846 235.65 130.293 235.908 130.201C236.244 130.073 236.642 130.286 237.081 129.92C238.945 128.404 240.801 126.516 242.871 125.125C243.123 124.955 243.658 124.938 243.986 124.644C244.459 124.231 244.679 123.291 244.741 123.229C244.887 123.11 245.267 123.199 245.507 123.081C245.697 122.973 245.901 122.606 246.193 122.413C247.296 121.679 246.786 121.996 247.598 121.095C247.868 120.798 248.475 120.57 248.821 120.149C249.332 119.527 249.673 118.473 249.715 117.687L249.754 117.674ZM4.60339 49.4221C4.16594 49.6796 3.63351 49.1843 4.59772 49.0937C4.74784 49.107 4.62816 49.417 4.60339 49.4221ZM7.18776 49.8633C7.18776 49.8633 6.35707 49.887 6.30211 49.8196C6.45774 49.5071 6.89026 49.6737 7.18209 49.5348C7.33221 49.5482 7.21253 49.8582 7.18776 49.8633ZM8.43714 46.841L8.5097 46.5308L9.02379 46.6511C8.9147 46.8655 8.65974 46.9476 8.43714 46.841ZM6.50811 59.67C6.31395 59.3411 6.88734 59.0064 7.13346 59.3148C7.27841 59.5013 6.63705 59.8746 6.50811 59.67ZM7.1852 64.4842C7.14384 64.4091 7.21132 63.8688 7.55109 64.0792C8.03524 64.3778 7.31414 64.6888 7.1852 64.4842ZM7.63948 66.0188L7.34441 65.819L7.83298 65.1919L8.12805 65.3917L7.63948 66.0188ZM9.86146 57.6306C9.75279 57.289 10.374 56.6493 10.5482 56.9626C10.7161 57.2527 10.2638 57.7248 9.86146 57.6306ZM11.3183 52.1599C11.589 51.809 11.5966 51.6254 12.1089 51.8543C12.0046 52.0479 11.4657 52.3362 11.3183 52.1599ZM11.9397 50.31C12.0024 49.7904 12.0184 49.7724 12.5651 49.9548L11.9397 50.31ZM13.1782 65.7229L13.6923 65.8432C13.5832 66.0575 13.3282 66.1396 13.1056 66.033L13.1782 65.7229ZM15.5756 52.0003L15.5063 52.6492L15.171 52.5708C15.1941 52.2708 15.2775 52.1159 15.5756 52.0003ZM13.3828 59.4577C13.2627 59.266 13.9234 58.81 14.2121 58.9866C14.0184 59.1593 13.5707 59.7633 13.3828 59.4577ZM13.5455 60.3244L14.1708 59.9691C14.1565 60.282 13.8463 60.4493 13.5455 60.3244ZM11.4851 72.9591C11.531 72.7627 12.2518 72.6043 12.2781 72.6431C12.4148 72.915 11.7889 73.172 11.4851 72.9591ZM19.5177 45.5301L20.1126 45.255C20.1134 45.6041 20.2976 46.1269 19.7248 46.1565C19.8518 45.8155 19.824 45.7326 19.5066 45.5275L19.5177 45.5301ZM19.622 46.7975L19.6532 46.4123L20.7264 46.5107L20.6952 46.896L19.622 46.7975ZM22.4647 38.3256C22.5274 37.8059 22.5434 37.7879 23.0901 37.9703L22.4647 38.3256ZM18.7622 69.5154L18.9098 68.8848L19.2451 68.9633C19.222 69.2632 19.1169 69.5112 18.7622 69.5154ZM29.0127 34.8748L29.8984 34.9184L29.7508 35.549C29.4733 35.375 28.7698 35.3086 29.0127 34.8748ZM25.2501 49.4446L26.2302 48.6817L26.546 49.2462C25.7254 48.6726 25.9829 49.2344 25.2501 49.4446ZM30.723 39.102C30.8049 38.9031 31.3997 38.628 31.5136 38.7964C31.6712 39.0295 31.0332 39.3382 30.723 39.102ZM29.1794 53.5587L29.0504 53.354L29.986 52.8315L30.115 53.0361L29.1794 53.5587ZM31.0955 51.3138L31.2068 50.8383L31.5421 50.9168C31.5472 51.1469 31.3559 51.3093 31.0955 51.3138ZM41.4741 34.7157L41.8299 34.908L41.3473 35.7109L40.9916 35.5186L41.4741 34.7157ZM41.305 36.0935L41.1211 36.8792L40.9535 36.84L41.1373 36.0543L41.305 36.0935ZM40.7367 38.1194L40.7036 38.6133L40.3683 38.5348C40.3657 38.2943 40.524 38.2223 40.7367 38.1194ZM34.5021 42.1451L34.8374 42.2236L34.7261 42.6991L34.3908 42.6207L34.5021 42.1451ZM34.2127 43.7347C33.7433 43.6249 34.3771 43.0318 34.5786 43.3297C34.6574 43.4463 34.3244 43.7609 34.2127 43.7347ZM37.2706 31.824L37.3819 31.3485L37.7172 31.427C37.7222 31.6571 37.531 31.8195 37.2706 31.824ZM37.5628 34.0513C37.4179 33.8647 37.3055 33.7403 37.4171 33.5156L37.7523 33.5941L37.5628 34.0513ZM36.292 41.3973C36.3576 40.9656 36.9011 40.8092 37.2889 40.9654L36.292 41.3973ZM37.6392 42.5412L36.8262 42.1874C36.9907 41.081 37.7417 42.4561 37.7667 41.2408C38.2708 41.555 37.5883 42.104 37.6392 42.5412ZM36.4749 54.4697C36.3514 54.3427 35.9829 54.5072 35.9303 54.4295C35.8189 54.2508 36.279 53.846 36.6665 54.1547C36.6952 54.1832 36.6903 54.6073 37.1512 54.5516C36.4614 55.5351 36.6359 54.6382 36.4638 54.4671L36.4749 54.4697ZM40.731 37.791C40.5909 37.5838 41.2138 37.2389 41.3563 37.4358C41.4964 37.643 40.8735 37.9879 40.731 37.791ZM37.829 53.2164C37.2789 53.5021 37.5951 52.453 38.1805 52.47C38.1131 52.6069 37.8674 53.2036 37.829 53.2164ZM42.3371 37.8288L42.8874 37.794C42.8082 38.2334 42.4046 38.3462 42.3371 37.8288ZM45.3092 37.3684C44.9621 37.1891 45.0861 36.7602 44.9789 36.4625C45.5138 36.5441 45.4346 36.9835 45.3092 37.3684ZM48.0519 33.3544C48.192 33.5616 47.5691 33.9065 47.4265 33.7096C47.2864 33.5024 47.9093 33.1575 48.0519 33.3544ZM45.5461 44.0641L45.3566 44.5213C45.2116 44.3347 45.0993 44.2103 45.2108 43.9856L45.5461 44.0641ZM44.8523 45.0139L44.7738 44.7448L45.9764 44.4919L46.0549 44.761L44.8523 45.0139ZM49.9365 42.9324C49.8638 42.5883 50.3934 42.1889 50.5981 42.4221C50.6268 42.4507 50.1488 42.9821 49.9365 42.9324ZM51.8788 55.3371L51.0295 55.1384L51.0657 54.9833C51.2572 55.0717 51.91 54.9519 51.9514 55.027C51.9689 55.0529 51.9006 55.2441 51.8788 55.3371ZM59.91 33.3049L60.5354 32.9497C60.5235 33.2522 60.222 33.4325 59.91 33.3049ZM64.2987 40.6449C64.28 40.4224 64.7419 39.909 64.7815 40.0927C64.7609 40.3823 64.6533 40.6406 64.2987 40.6449ZM69.7321 22.8133C69.6907 22.7382 69.7582 22.1979 70.098 22.4083C70.5821 22.7069 69.861 23.018 69.7321 22.8133ZM72.3449 20.11L72.4562 19.6345L72.7915 19.7129C72.7966 19.9431 72.6053 20.1055 72.3449 20.11ZM84.1485 18.3796L83.8326 17.815L84.3467 17.9353L84.1597 18.3822L84.1485 18.3796ZM83.8327 16.354L83.7678 16.0771L84.8256 15.8885L84.8905 16.1653L83.8327 16.354ZM86.3413 10.9222C86.6527 10.9515 86.9336 11.0608 86.9504 11.3918C86.7124 11.4016 86.1455 10.9527 86.3413 10.9222ZM96.8274 13.7137L96.2939 14.0796C95.8947 13.6699 96.3502 13.5367 96.8274 13.7137ZM91.54 29.4097C91.856 29.5708 91.8426 29.8294 91.7278 30.1187L91.3925 30.0403L91.54 29.4097ZM87.6881 36.6533C88.0007 36.4756 88.3056 37.2884 87.8363 37.1786C87.7245 37.1524 87.5681 36.7124 87.6881 36.6533ZM85.9949 43.8895L86.1062 43.414L86.4415 43.4925C86.4466 43.7226 86.2553 43.885 85.9949 43.8895ZM90.7875 42.6012C90.074 42.7287 90.3031 43.5128 90.5513 43.9634C90.852 44.4917 91.4827 44.6175 91.4376 45.163L88.7148 43.7518C87.7816 42.8029 86.414 42.1994 85.4871 41.2738C84.9707 40.7605 84.7063 39.6737 83.743 39.71C84.2542 39.3389 83.8747 38.694 84.1502 38.3224C84.9808 37.241 85.8439 38.0863 86.2747 37.9581C86.4146 37.9145 86.5506 37.4339 86.6186 37.3953C86.972 37.1945 86.8949 37.7761 86.9906 37.8203C88.0016 38.2858 90.6123 36.9013 91.5641 38.4761C91.5809 38.8071 91.0731 38.7101 90.9979 38.7797C90.4777 39.2904 91.3195 39.2693 91.3745 39.3367C91.6357 39.6813 90.9506 39.5864 90.9225 39.6562C90.6952 40.2245 91.879 42.017 92.2123 42.6075C91.789 42.9555 91.2693 42.5068 90.7763 42.5986L90.7875 42.6012ZM94.0156 39.7366C94.3201 38.5866 95.9125 39.0355 96.7382 39.4359C96.6812 40.6874 93.5428 41.5559 94.0156 39.7366ZM111.599 48.8226C111.161 48.8292 111.016 48.3918 110.735 48.3807C110.48 48.3646 110.181 48.7853 109.849 48.7948C109.6 48.8019 108.809 48.5516 108.374 48.5479C106.243 48.4855 104.444 47.9662 102.416 47.917C102.286 47.9192 102.25 48.1726 102.109 48.1722C101.696 48.1737 100.461 47.9068 100.879 47.3829L103.344 44.5034C103.525 44.1858 103.722 42.7381 103.685 42.3915C103.636 41.8458 102.944 41.4768 103.028 40.9184C103.172 40.8542 105.379 41.752 105.744 41.903C105.992 42.0044 106.12 42.2634 106.238 42.3128C106.454 42.3961 106.665 42.151 106.779 42.1668C106.902 42.1956 107.001 42.5786 107.221 42.6955C108.351 43.3087 110.077 43.789 111.091 44.5932C111.339 44.793 112.836 46.3536 112.918 46.5581C113.127 47.0759 112.681 47.8763 112.914 48.5415C112.41 48.3256 111.987 48.8262 111.596 48.8329L111.599 48.8226ZM154.593 54.0412C154.489 54.3331 154.278 55.1342 154.228 55.4496C154.159 55.8476 154.338 56.3911 154.202 56.7192C154.174 56.7889 152.922 57.608 152.839 57.6104C152.634 57.628 152.449 57.4103 152.277 57.3917C152.138 57.381 152.106 57.668 151.976 57.6702C151.906 57.6649 150.763 57.4628 150.696 57.4471C149.24 57.0193 148.048 56.0206 146.604 55.541C146.381 54.7802 145.541 55.0961 144.942 54.4325C144.71 53.5604 143.505 52.3626 144.735 51.6909C144.775 51.6677 145.656 51.3286 145.717 51.321C146.14 51.2782 147.012 51.5804 147.665 51.4606C147.998 51.3968 148.088 51.1125 148.37 51.015C148.882 50.8405 150.125 51.0221 150.757 50.941C151.265 50.8855 150.584 50.6716 151.617 50.8915C151.952 50.97 152.441 50.8445 152.659 51.2227C152.727 51.3366 152.653 51.6028 152.753 51.7789C153.04 52.3149 154.589 53.5059 155.277 53.2853C155.405 53.795 154.619 53.9818 154.596 54.0308L154.593 54.0412ZM158.966 52.0768C158.881 52.1878 158.844 52.2446 158.72 52.3244C158.595 52.4043 158.446 52.4349 158.289 52.4526C158.255 52.4448 158.217 52.4576 158.195 52.4524C158.114 52.4444 158.022 52.4338 157.944 52.4155C157.91 52.4077 157.866 52.3972 157.832 52.3894C157.743 52.3685 157.669 52.3295 157.585 52.2879C157.5 52.2463 157.423 52.1737 157.37 52.096C157.344 52.0571 157.331 52.0105 157.305 51.9717C157.269 51.8759 157.266 51.788 157.287 51.6949C157.297 51.6536 157.32 51.6045 157.341 51.5658C157.38 51.4986 157.426 51.4548 157.483 51.4136C157.51 51.3981 157.537 51.3827 157.564 51.3672C157.564 51.3672 157.567 51.3569 157.569 51.3466C157.586 51.2742 157.612 51.2148 157.66 51.1606C157.697 51.1038 157.745 51.0496 157.81 51.0214C157.878 50.9827 157.942 50.9648 158.013 50.9598C158.088 50.9445 158.16 50.9395 158.235 50.9682C158.269 50.976 158.302 50.9838 158.347 50.9943C158.37 50.9995 158.381 51.0022 158.406 50.997C158.394 50.9944 158.383 50.9918 158.37 50.9995C158.392 51.0048 158.403 51.0074 158.425 51.0126C158.473 51.0127 158.522 51.0025 158.578 51.0156C158.623 51.026 158.676 51.0495 158.718 51.0703C158.792 51.1092 158.84 51.1533 158.887 51.2077C158.933 51.2622 158.979 51.3166 158.998 51.3865C159.023 51.4796 159.049 51.5728 159.052 51.6607C159.053 51.7047 159.044 51.746 159.045 51.79C159.035 51.8313 159.039 51.865 159.03 51.9063C159.013 51.9787 158.996 52.0511 158.945 52.1156L158.966 52.0768ZM177.971 60.2744C177.558 61.0827 177.02 60.6624 176.15 60.7532C174.819 60.8998 173.976 60.8769 172.689 60.9356C171.654 60.9769 170.79 61.091 169.764 60.8401C169.451 60.7669 169.1 60.4557 168.808 60.442C168.611 60.4286 168.511 60.9067 168.096 60.9186C167.799 60.9255 167.47 60.7721 167.131 60.7583C166.945 60.7475 166.764 60.9668 166.518 60.9093C166.44 60.891 166.624 60.3562 165.786 60.5635L167.628 58.7374C167.899 57.9287 168.608 57.5711 169.048 57.1507C169.139 57.063 169.119 56.2949 169.229 56.0263C169.486 55.3779 170.017 55.0767 170.273 54.4826C170.761 54.4658 170.941 55.0532 171.289 55.1783C171.834 55.371 172.873 54.96 172.599 56.0298C173.265 55.5532 173.731 56.2293 174.055 56.3051C174.301 56.3627 174.626 56.1334 175.119 56.2924C175.209 56.3133 176.398 57.0715 176.431 57.1336C176.507 57.2605 176.337 57.5368 176.363 57.5756C176.492 57.7803 176.909 57.2564 177.381 57.6067C178.297 58.2789 178.437 59.3912 177.98 60.2873L177.971 60.2744Z" fill="#282626"/>
</svg>
